<?xml version="1.0" encoding="utf-8" standalone="no"?>
<!DOCTYPE svg PUBLIC "-//W3C//DTD SVG 1.1//EN"
  "http://www.w3.org/Graphics/SVG/1.1/DTD/svg11.dtd">
<svg xmlns:xlink="http://www.w3.org/1999/xlink" width="720pt" height="432pt" viewBox="0 0 720 432" xmlns="http://www.w3.org/2000/svg" version="1.1">
 <metadata>
  <rdf:RDF xmlns:dc="http://purl.org/dc/elements/1.1/" xmlns:cc="http://creativecommons.org/ns#" xmlns:rdf="http://www.w3.org/1999/02/22-rdf-syntax-ns#">
   <cc:Work>
    <dc:type rdf:resource="http://purl.org/dc/dcmitype/StillImage"/>
    <dc:date>2024-12-10T23:36:55.152259</dc:date>
    <dc:format>image/svg+xml</dc:format>
    <dc:creator>
     <cc:Agent>
      <dc:title>Matplotlib v3.8.3, https://matplotlib.org/</dc:title>
     </cc:Agent>
    </dc:creator>
   </cc:Work>
  </rdf:RDF>
 </metadata>
 <defs>
  <style type="text/css">*{stroke-linejoin: round; stroke-linecap: butt}</style>
 </defs>
 <g id="figure_1">
  <g id="patch_1">
   <path d="M 0 432 
L 720 432 
L 720 0 
L 0 0 
z
" style="fill: #ffffff"/>
  </g>
  <g id="axes_1">
   <g id="patch_2">
    <path d="M 90 384.48 
L 648 384.48 
L 648 51.84 
L 90 51.84 
z
" style="fill: #ffffff"/>
   </g>
   <g id="matplotlib.axis_1">
    <g id="xtick_1">
     <g id="line2d_1">
      <path d="M 115.363636 384.48 
L 115.363636 51.84 
" clip-path="url(#p1a29b56921)" style="fill: none; stroke: #b0b0b0; stroke-width: 0.8; stroke-linecap: square"/>
     </g>
     <g id="line2d_2">
      <defs>
       <path id="med7fd52a06" d="M 0 0 
L 0 3.5 
" style="stroke: #000000; stroke-width: 0.8"/>
      </defs>
      <g>
       <use xlink:href="#med7fd52a06" x="115.363636" y="384.48" style="stroke: #000000; stroke-width: 0.8"/>
      </g>
     </g>
     <g id="text_1">
      <!-- 0 -->
      <g transform="translate(112.182386 399.078438) scale(0.1 -0.1)">
       <defs>
        <path id="DejaVuSans-30" d="M 2034 4250 
Q 1547 4250 1301 3770 
Q 1056 3291 1056 2328 
Q 1056 1369 1301 889 
Q 1547 409 2034 409 
Q 2525 409 2770 889 
Q 3016 1369 3016 2328 
Q 3016 3291 2770 3770 
Q 2525 4250 2034 4250 
z
M 2034 4750 
Q 2819 4750 3233 4129 
Q 3647 3509 3647 2328 
Q 3647 1150 3233 529 
Q 2819 -91 2034 -91 
Q 1250 -91 836 529 
Q 422 1150 422 2328 
Q 422 3509 836 4129 
Q 1250 4750 2034 4750 
z
" transform="scale(0.015625)"/>
       </defs>
       <use xlink:href="#DejaVuSans-30"/>
      </g>
     </g>
    </g>
    <g id="xtick_2">
     <g id="line2d_3">
      <path d="M 205.127355 384.48 
L 205.127355 51.84 
" clip-path="url(#p1a29b56921)" style="fill: none; stroke: #b0b0b0; stroke-width: 0.8; stroke-linecap: square"/>
     </g>
     <g id="line2d_4">
      <g>
       <use xlink:href="#med7fd52a06" x="205.127355" y="384.48" style="stroke: #000000; stroke-width: 0.8"/>
      </g>
     </g>
     <g id="text_2">
      <!-- 100000 -->
      <g transform="translate(186.039855 399.078438) scale(0.1 -0.1)">
       <defs>
        <path id="DejaVuSans-31" d="M 794 531 
L 1825 531 
L 1825 4091 
L 703 3866 
L 703 4441 
L 1819 4666 
L 2450 4666 
L 2450 531 
L 3481 531 
L 3481 0 
L 794 0 
L 794 531 
z
" transform="scale(0.015625)"/>
       </defs>
       <use xlink:href="#DejaVuSans-31"/>
       <use xlink:href="#DejaVuSans-30" x="63.623047"/>
       <use xlink:href="#DejaVuSans-30" x="127.246094"/>
       <use xlink:href="#DejaVuSans-30" x="190.869141"/>
       <use xlink:href="#DejaVuSans-30" x="254.492188"/>
       <use xlink:href="#DejaVuSans-30" x="318.115234"/>
      </g>
     </g>
    </g>
    <g id="xtick_3">
     <g id="line2d_5">
      <path d="M 294.891074 384.48 
L 294.891074 51.84 
" clip-path="url(#p1a29b56921)" style="fill: none; stroke: #b0b0b0; stroke-width: 0.8; stroke-linecap: square"/>
     </g>
     <g id="line2d_6">
      <g>
       <use xlink:href="#med7fd52a06" x="294.891074" y="384.48" style="stroke: #000000; stroke-width: 0.8"/>
      </g>
     </g>
     <g id="text_3">
      <!-- 200000 -->
      <g transform="translate(275.803574 399.078438) scale(0.1 -0.1)">
       <defs>
        <path id="DejaVuSans-32" d="M 1228 531 
L 3431 531 
L 3431 0 
L 469 0 
L 469 531 
Q 828 903 1448 1529 
Q 2069 2156 2228 2338 
Q 2531 2678 2651 2914 
Q 2772 3150 2772 3378 
Q 2772 3750 2511 3984 
Q 2250 4219 1831 4219 
Q 1534 4219 1204 4116 
Q 875 4013 500 3803 
L 500 4441 
Q 881 4594 1212 4672 
Q 1544 4750 1819 4750 
Q 2544 4750 2975 4387 
Q 3406 4025 3406 3419 
Q 3406 3131 3298 2873 
Q 3191 2616 2906 2266 
Q 2828 2175 2409 1742 
Q 1991 1309 1228 531 
z
" transform="scale(0.015625)"/>
       </defs>
       <use xlink:href="#DejaVuSans-32"/>
       <use xlink:href="#DejaVuSans-30" x="63.623047"/>
       <use xlink:href="#DejaVuSans-30" x="127.246094"/>
       <use xlink:href="#DejaVuSans-30" x="190.869141"/>
       <use xlink:href="#DejaVuSans-30" x="254.492188"/>
       <use xlink:href="#DejaVuSans-30" x="318.115234"/>
      </g>
     </g>
    </g>
    <g id="xtick_4">
     <g id="line2d_7">
      <path d="M 384.654793 384.48 
L 384.654793 51.84 
" clip-path="url(#p1a29b56921)" style="fill: none; stroke: #b0b0b0; stroke-width: 0.8; stroke-linecap: square"/>
     </g>
     <g id="line2d_8">
      <g>
       <use xlink:href="#med7fd52a06" x="384.654793" y="384.48" style="stroke: #000000; stroke-width: 0.8"/>
      </g>
     </g>
     <g id="text_4">
      <!-- 300000 -->
      <g transform="translate(365.567293 399.078438) scale(0.1 -0.1)">
       <defs>
        <path id="DejaVuSans-33" d="M 2597 2516 
Q 3050 2419 3304 2112 
Q 3559 1806 3559 1356 
Q 3559 666 3084 287 
Q 2609 -91 1734 -91 
Q 1441 -91 1130 -33 
Q 819 25 488 141 
L 488 750 
Q 750 597 1062 519 
Q 1375 441 1716 441 
Q 2309 441 2620 675 
Q 2931 909 2931 1356 
Q 2931 1769 2642 2001 
Q 2353 2234 1838 2234 
L 1294 2234 
L 1294 2753 
L 1863 2753 
Q 2328 2753 2575 2939 
Q 2822 3125 2822 3475 
Q 2822 3834 2567 4026 
Q 2313 4219 1838 4219 
Q 1578 4219 1281 4162 
Q 984 4106 628 3988 
L 628 4550 
Q 988 4650 1302 4700 
Q 1616 4750 1894 4750 
Q 2613 4750 3031 4423 
Q 3450 4097 3450 3541 
Q 3450 3153 3228 2886 
Q 3006 2619 2597 2516 
z
" transform="scale(0.015625)"/>
       </defs>
       <use xlink:href="#DejaVuSans-33"/>
       <use xlink:href="#DejaVuSans-30" x="63.623047"/>
       <use xlink:href="#DejaVuSans-30" x="127.246094"/>
       <use xlink:href="#DejaVuSans-30" x="190.869141"/>
       <use xlink:href="#DejaVuSans-30" x="254.492188"/>
       <use xlink:href="#DejaVuSans-30" x="318.115234"/>
      </g>
     </g>
    </g>
    <g id="xtick_5">
     <g id="line2d_9">
      <path d="M 474.418511 384.48 
L 474.418511 51.84 
" clip-path="url(#p1a29b56921)" style="fill: none; stroke: #b0b0b0; stroke-width: 0.8; stroke-linecap: square"/>
     </g>
     <g id="line2d_10">
      <g>
       <use xlink:href="#med7fd52a06" x="474.418511" y="384.48" style="stroke: #000000; stroke-width: 0.8"/>
      </g>
     </g>
     <g id="text_5">
      <!-- 400000 -->
      <g transform="translate(455.331011 399.078438) scale(0.1 -0.1)">
       <defs>
        <path id="DejaVuSans-34" d="M 2419 4116 
L 825 1625 
L 2419 1625 
L 2419 4116 
z
M 2253 4666 
L 3047 4666 
L 3047 1625 
L 3713 1625 
L 3713 1100 
L 3047 1100 
L 3047 0 
L 2419 0 
L 2419 1100 
L 313 1100 
L 313 1709 
L 2253 4666 
z
" transform="scale(0.015625)"/>
       </defs>
       <use xlink:href="#DejaVuSans-34"/>
       <use xlink:href="#DejaVuSans-30" x="63.623047"/>
       <use xlink:href="#DejaVuSans-30" x="127.246094"/>
       <use xlink:href="#DejaVuSans-30" x="190.869141"/>
       <use xlink:href="#DejaVuSans-30" x="254.492188"/>
       <use xlink:href="#DejaVuSans-30" x="318.115234"/>
      </g>
     </g>
    </g>
    <g id="xtick_6">
     <g id="line2d_11">
      <path d="M 564.18223 384.48 
L 564.18223 51.84 
" clip-path="url(#p1a29b56921)" style="fill: none; stroke: #b0b0b0; stroke-width: 0.8; stroke-linecap: square"/>
     </g>
     <g id="line2d_12">
      <g>
       <use xlink:href="#med7fd52a06" x="564.18223" y="384.48" style="stroke: #000000; stroke-width: 0.8"/>
      </g>
     </g>
     <g id="text_6">
      <!-- 500000 -->
      <g transform="translate(545.09473 399.078438) scale(0.1 -0.1)">
       <defs>
        <path id="DejaVuSans-35" d="M 691 4666 
L 3169 4666 
L 3169 4134 
L 1269 4134 
L 1269 2991 
Q 1406 3038 1543 3061 
Q 1681 3084 1819 3084 
Q 2600 3084 3056 2656 
Q 3513 2228 3513 1497 
Q 3513 744 3044 326 
Q 2575 -91 1722 -91 
Q 1428 -91 1123 -41 
Q 819 9 494 109 
L 494 744 
Q 775 591 1075 516 
Q 1375 441 1709 441 
Q 2250 441 2565 725 
Q 2881 1009 2881 1497 
Q 2881 1984 2565 2268 
Q 2250 2553 1709 2553 
Q 1456 2553 1204 2497 
Q 953 2441 691 2322 
L 691 4666 
z
" transform="scale(0.015625)"/>
       </defs>
       <use xlink:href="#DejaVuSans-35"/>
       <use xlink:href="#DejaVuSans-30" x="63.623047"/>
       <use xlink:href="#DejaVuSans-30" x="127.246094"/>
       <use xlink:href="#DejaVuSans-30" x="190.869141"/>
       <use xlink:href="#DejaVuSans-30" x="254.492188"/>
       <use xlink:href="#DejaVuSans-30" x="318.115234"/>
      </g>
     </g>
    </g>
    <g id="text_7">
     <!-- Zeit in frames -->
     <g transform="translate(333.982031 412.756563) scale(0.1 -0.1)">
      <defs>
       <path id="DejaVuSans-5a" d="M 359 4666 
L 4025 4666 
L 4025 4184 
L 1075 531 
L 4097 531 
L 4097 0 
L 288 0 
L 288 481 
L 3238 4134 
L 359 4134 
L 359 4666 
z
" transform="scale(0.015625)"/>
       <path id="DejaVuSans-65" d="M 3597 1894 
L 3597 1613 
L 953 1613 
Q 991 1019 1311 708 
Q 1631 397 2203 397 
Q 2534 397 2845 478 
Q 3156 559 3463 722 
L 3463 178 
Q 3153 47 2828 -22 
Q 2503 -91 2169 -91 
Q 1331 -91 842 396 
Q 353 884 353 1716 
Q 353 2575 817 3079 
Q 1281 3584 2069 3584 
Q 2775 3584 3186 3129 
Q 3597 2675 3597 1894 
z
M 3022 2063 
Q 3016 2534 2758 2815 
Q 2500 3097 2075 3097 
Q 1594 3097 1305 2825 
Q 1016 2553 972 2059 
L 3022 2063 
z
" transform="scale(0.015625)"/>
       <path id="DejaVuSans-69" d="M 603 3500 
L 1178 3500 
L 1178 0 
L 603 0 
L 603 3500 
z
M 603 4863 
L 1178 4863 
L 1178 4134 
L 603 4134 
L 603 4863 
z
" transform="scale(0.015625)"/>
       <path id="DejaVuSans-74" d="M 1172 4494 
L 1172 3500 
L 2356 3500 
L 2356 3053 
L 1172 3053 
L 1172 1153 
Q 1172 725 1289 603 
Q 1406 481 1766 481 
L 2356 481 
L 2356 0 
L 1766 0 
Q 1100 0 847 248 
Q 594 497 594 1153 
L 594 3053 
L 172 3053 
L 172 3500 
L 594 3500 
L 594 4494 
L 1172 4494 
z
" transform="scale(0.015625)"/>
       <path id="DejaVuSans-20" transform="scale(0.015625)"/>
       <path id="DejaVuSans-6e" d="M 3513 2113 
L 3513 0 
L 2938 0 
L 2938 2094 
Q 2938 2591 2744 2837 
Q 2550 3084 2163 3084 
Q 1697 3084 1428 2787 
Q 1159 2491 1159 1978 
L 1159 0 
L 581 0 
L 581 3500 
L 1159 3500 
L 1159 2956 
Q 1366 3272 1645 3428 
Q 1925 3584 2291 3584 
Q 2894 3584 3203 3211 
Q 3513 2838 3513 2113 
z
" transform="scale(0.015625)"/>
       <path id="DejaVuSans-66" d="M 2375 4863 
L 2375 4384 
L 1825 4384 
Q 1516 4384 1395 4259 
Q 1275 4134 1275 3809 
L 1275 3500 
L 2222 3500 
L 2222 3053 
L 1275 3053 
L 1275 0 
L 697 0 
L 697 3053 
L 147 3053 
L 147 3500 
L 697 3500 
L 697 3744 
Q 697 4328 969 4595 
Q 1241 4863 1831 4863 
L 2375 4863 
z
" transform="scale(0.015625)"/>
       <path id="DejaVuSans-72" d="M 2631 2963 
Q 2534 3019 2420 3045 
Q 2306 3072 2169 3072 
Q 1681 3072 1420 2755 
Q 1159 2438 1159 1844 
L 1159 0 
L 581 0 
L 581 3500 
L 1159 3500 
L 1159 2956 
Q 1341 3275 1631 3429 
Q 1922 3584 2338 3584 
Q 2397 3584 2469 3576 
Q 2541 3569 2628 3553 
L 2631 2963 
z
" transform="scale(0.015625)"/>
       <path id="DejaVuSans-61" d="M 2194 1759 
Q 1497 1759 1228 1600 
Q 959 1441 959 1056 
Q 959 750 1161 570 
Q 1363 391 1709 391 
Q 2188 391 2477 730 
Q 2766 1069 2766 1631 
L 2766 1759 
L 2194 1759 
z
M 3341 1997 
L 3341 0 
L 2766 0 
L 2766 531 
Q 2569 213 2275 61 
Q 1981 -91 1556 -91 
Q 1019 -91 701 211 
Q 384 513 384 1019 
Q 384 1609 779 1909 
Q 1175 2209 1959 2209 
L 2766 2209 
L 2766 2266 
Q 2766 2663 2505 2880 
Q 2244 3097 1772 3097 
Q 1472 3097 1187 3025 
Q 903 2953 641 2809 
L 641 3341 
Q 956 3463 1253 3523 
Q 1550 3584 1831 3584 
Q 2591 3584 2966 3190 
Q 3341 2797 3341 1997 
z
" transform="scale(0.015625)"/>
       <path id="DejaVuSans-6d" d="M 3328 2828 
Q 3544 3216 3844 3400 
Q 4144 3584 4550 3584 
Q 5097 3584 5394 3201 
Q 5691 2819 5691 2113 
L 5691 0 
L 5113 0 
L 5113 2094 
Q 5113 2597 4934 2840 
Q 4756 3084 4391 3084 
Q 3944 3084 3684 2787 
Q 3425 2491 3425 1978 
L 3425 0 
L 2847 0 
L 2847 2094 
Q 2847 2600 2669 2842 
Q 2491 3084 2119 3084 
Q 1678 3084 1418 2786 
Q 1159 2488 1159 1978 
L 1159 0 
L 581 0 
L 581 3500 
L 1159 3500 
L 1159 2956 
Q 1356 3278 1631 3431 
Q 1906 3584 2284 3584 
Q 2666 3584 2933 3390 
Q 3200 3197 3328 2828 
z
" transform="scale(0.015625)"/>
       <path id="DejaVuSans-73" d="M 2834 3397 
L 2834 2853 
Q 2591 2978 2328 3040 
Q 2066 3103 1784 3103 
Q 1356 3103 1142 2972 
Q 928 2841 928 2578 
Q 928 2378 1081 2264 
Q 1234 2150 1697 2047 
L 1894 2003 
Q 2506 1872 2764 1633 
Q 3022 1394 3022 966 
Q 3022 478 2636 193 
Q 2250 -91 1575 -91 
Q 1294 -91 989 -36 
Q 684 19 347 128 
L 347 722 
Q 666 556 975 473 
Q 1284 391 1588 391 
Q 1994 391 2212 530 
Q 2431 669 2431 922 
Q 2431 1156 2273 1281 
Q 2116 1406 1581 1522 
L 1381 1569 
Q 847 1681 609 1914 
Q 372 2147 372 2553 
Q 372 3047 722 3315 
Q 1072 3584 1716 3584 
Q 2034 3584 2315 3537 
Q 2597 3491 2834 3397 
z
" transform="scale(0.015625)"/>
      </defs>
      <use xlink:href="#DejaVuSans-5a"/>
      <use xlink:href="#DejaVuSans-65" x="68.505859"/>
      <use xlink:href="#DejaVuSans-69" x="130.029297"/>
      <use xlink:href="#DejaVuSans-74" x="157.8125"/>
      <use xlink:href="#DejaVuSans-20" x="197.021484"/>
      <use xlink:href="#DejaVuSans-69" x="228.808594"/>
      <use xlink:href="#DejaVuSans-6e" x="256.591797"/>
      <use xlink:href="#DejaVuSans-20" x="319.970703"/>
      <use xlink:href="#DejaVuSans-66" x="351.757812"/>
      <use xlink:href="#DejaVuSans-72" x="386.962891"/>
      <use xlink:href="#DejaVuSans-61" x="428.076172"/>
      <use xlink:href="#DejaVuSans-6d" x="489.355469"/>
      <use xlink:href="#DejaVuSans-65" x="586.767578"/>
      <use xlink:href="#DejaVuSans-73" x="648.291016"/>
     </g>
    </g>
   </g>
   <g id="matplotlib.axis_2">
    <g id="ytick_1">
     <g id="line2d_13">
      <path d="M 90 369.362207 
L 648 369.362207 
" clip-path="url(#p1a29b56921)" style="fill: none; stroke: #b0b0b0; stroke-width: 0.8; stroke-linecap: square"/>
     </g>
     <g id="line2d_14">
      <defs>
       <path id="m2670bcb81c" d="M 0 0 
L -3.5 0 
" style="stroke: #000000; stroke-width: 0.8"/>
      </defs>
      <g>
       <use xlink:href="#m2670bcb81c" x="90" y="369.362207" style="stroke: #000000; stroke-width: 0.8"/>
      </g>
     </g>
     <g id="text_8">
      <!-- 0 -->
      <g transform="translate(76.6375 373.161426) scale(0.1 -0.1)">
       <use xlink:href="#DejaVuSans-30"/>
      </g>
     </g>
    </g>
    <g id="ytick_2">
     <g id="line2d_15">
      <path d="M 90 325.224598 
L 648 325.224598 
" clip-path="url(#p1a29b56921)" style="fill: none; stroke: #b0b0b0; stroke-width: 0.8; stroke-linecap: square"/>
     </g>
     <g id="line2d_16">
      <g>
       <use xlink:href="#m2670bcb81c" x="90" y="325.224598" style="stroke: #000000; stroke-width: 0.8"/>
      </g>
     </g>
     <g id="text_9">
      <!-- 20000 -->
      <g transform="translate(51.1875 329.023817) scale(0.1 -0.1)">
       <use xlink:href="#DejaVuSans-32"/>
       <use xlink:href="#DejaVuSans-30" x="63.623047"/>
       <use xlink:href="#DejaVuSans-30" x="127.246094"/>
       <use xlink:href="#DejaVuSans-30" x="190.869141"/>
       <use xlink:href="#DejaVuSans-30" x="254.492188"/>
      </g>
     </g>
    </g>
    <g id="ytick_3">
     <g id="line2d_17">
      <path d="M 90 281.086989 
L 648 281.086989 
" clip-path="url(#p1a29b56921)" style="fill: none; stroke: #b0b0b0; stroke-width: 0.8; stroke-linecap: square"/>
     </g>
     <g id="line2d_18">
      <g>
       <use xlink:href="#m2670bcb81c" x="90" y="281.086989" style="stroke: #000000; stroke-width: 0.8"/>
      </g>
     </g>
     <g id="text_10">
      <!-- 40000 -->
      <g transform="translate(51.1875 284.886208) scale(0.1 -0.1)">
       <use xlink:href="#DejaVuSans-34"/>
       <use xlink:href="#DejaVuSans-30" x="63.623047"/>
       <use xlink:href="#DejaVuSans-30" x="127.246094"/>
       <use xlink:href="#DejaVuSans-30" x="190.869141"/>
       <use xlink:href="#DejaVuSans-30" x="254.492188"/>
      </g>
     </g>
    </g>
    <g id="ytick_4">
     <g id="line2d_19">
      <path d="M 90 236.94938 
L 648 236.94938 
" clip-path="url(#p1a29b56921)" style="fill: none; stroke: #b0b0b0; stroke-width: 0.8; stroke-linecap: square"/>
     </g>
     <g id="line2d_20">
      <g>
       <use xlink:href="#m2670bcb81c" x="90" y="236.94938" style="stroke: #000000; stroke-width: 0.8"/>
      </g>
     </g>
     <g id="text_11">
      <!-- 60000 -->
      <g transform="translate(51.1875 240.748599) scale(0.1 -0.1)">
       <defs>
        <path id="DejaVuSans-36" d="M 2113 2584 
Q 1688 2584 1439 2293 
Q 1191 2003 1191 1497 
Q 1191 994 1439 701 
Q 1688 409 2113 409 
Q 2538 409 2786 701 
Q 3034 994 3034 1497 
Q 3034 2003 2786 2293 
Q 2538 2584 2113 2584 
z
M 3366 4563 
L 3366 3988 
Q 3128 4100 2886 4159 
Q 2644 4219 2406 4219 
Q 1781 4219 1451 3797 
Q 1122 3375 1075 2522 
Q 1259 2794 1537 2939 
Q 1816 3084 2150 3084 
Q 2853 3084 3261 2657 
Q 3669 2231 3669 1497 
Q 3669 778 3244 343 
Q 2819 -91 2113 -91 
Q 1303 -91 875 529 
Q 447 1150 447 2328 
Q 447 3434 972 4092 
Q 1497 4750 2381 4750 
Q 2619 4750 2861 4703 
Q 3103 4656 3366 4563 
z
" transform="scale(0.015625)"/>
       </defs>
       <use xlink:href="#DejaVuSans-36"/>
       <use xlink:href="#DejaVuSans-30" x="63.623047"/>
       <use xlink:href="#DejaVuSans-30" x="127.246094"/>
       <use xlink:href="#DejaVuSans-30" x="190.869141"/>
       <use xlink:href="#DejaVuSans-30" x="254.492188"/>
      </g>
     </g>
    </g>
    <g id="ytick_5">
     <g id="line2d_21">
      <path d="M 90 192.811771 
L 648 192.811771 
" clip-path="url(#p1a29b56921)" style="fill: none; stroke: #b0b0b0; stroke-width: 0.8; stroke-linecap: square"/>
     </g>
     <g id="line2d_22">
      <g>
       <use xlink:href="#m2670bcb81c" x="90" y="192.811771" style="stroke: #000000; stroke-width: 0.8"/>
      </g>
     </g>
     <g id="text_12">
      <!-- 80000 -->
      <g transform="translate(51.1875 196.61099) scale(0.1 -0.1)">
       <defs>
        <path id="DejaVuSans-38" d="M 2034 2216 
Q 1584 2216 1326 1975 
Q 1069 1734 1069 1313 
Q 1069 891 1326 650 
Q 1584 409 2034 409 
Q 2484 409 2743 651 
Q 3003 894 3003 1313 
Q 3003 1734 2745 1975 
Q 2488 2216 2034 2216 
z
M 1403 2484 
Q 997 2584 770 2862 
Q 544 3141 544 3541 
Q 544 4100 942 4425 
Q 1341 4750 2034 4750 
Q 2731 4750 3128 4425 
Q 3525 4100 3525 3541 
Q 3525 3141 3298 2862 
Q 3072 2584 2669 2484 
Q 3125 2378 3379 2068 
Q 3634 1759 3634 1313 
Q 3634 634 3220 271 
Q 2806 -91 2034 -91 
Q 1263 -91 848 271 
Q 434 634 434 1313 
Q 434 1759 690 2068 
Q 947 2378 1403 2484 
z
M 1172 3481 
Q 1172 3119 1398 2916 
Q 1625 2713 2034 2713 
Q 2441 2713 2670 2916 
Q 2900 3119 2900 3481 
Q 2900 3844 2670 4047 
Q 2441 4250 2034 4250 
Q 1625 4250 1398 4047 
Q 1172 3844 1172 3481 
z
" transform="scale(0.015625)"/>
       </defs>
       <use xlink:href="#DejaVuSans-38"/>
       <use xlink:href="#DejaVuSans-30" x="63.623047"/>
       <use xlink:href="#DejaVuSans-30" x="127.246094"/>
       <use xlink:href="#DejaVuSans-30" x="190.869141"/>
       <use xlink:href="#DejaVuSans-30" x="254.492188"/>
      </g>
     </g>
    </g>
    <g id="ytick_6">
     <g id="line2d_23">
      <path d="M 90 148.674162 
L 648 148.674162 
" clip-path="url(#p1a29b56921)" style="fill: none; stroke: #b0b0b0; stroke-width: 0.8; stroke-linecap: square"/>
     </g>
     <g id="line2d_24">
      <g>
       <use xlink:href="#m2670bcb81c" x="90" y="148.674162" style="stroke: #000000; stroke-width: 0.8"/>
      </g>
     </g>
     <g id="text_13">
      <!-- 100000 -->
      <g transform="translate(44.825 152.473381) scale(0.1 -0.1)">
       <use xlink:href="#DejaVuSans-31"/>
       <use xlink:href="#DejaVuSans-30" x="63.623047"/>
       <use xlink:href="#DejaVuSans-30" x="127.246094"/>
       <use xlink:href="#DejaVuSans-30" x="190.869141"/>
       <use xlink:href="#DejaVuSans-30" x="254.492188"/>
       <use xlink:href="#DejaVuSans-30" x="318.115234"/>
      </g>
     </g>
    </g>
    <g id="ytick_7">
     <g id="line2d_25">
      <path d="M 90 104.536553 
L 648 104.536553 
" clip-path="url(#p1a29b56921)" style="fill: none; stroke: #b0b0b0; stroke-width: 0.8; stroke-linecap: square"/>
     </g>
     <g id="line2d_26">
      <g>
       <use xlink:href="#m2670bcb81c" x="90" y="104.536553" style="stroke: #000000; stroke-width: 0.8"/>
      </g>
     </g>
     <g id="text_14">
      <!-- 120000 -->
      <g transform="translate(44.825 108.335772) scale(0.1 -0.1)">
       <use xlink:href="#DejaVuSans-31"/>
       <use xlink:href="#DejaVuSans-32" x="63.623047"/>
       <use xlink:href="#DejaVuSans-30" x="127.246094"/>
       <use xlink:href="#DejaVuSans-30" x="190.869141"/>
       <use xlink:href="#DejaVuSans-30" x="254.492188"/>
       <use xlink:href="#DejaVuSans-30" x="318.115234"/>
      </g>
     </g>
    </g>
    <g id="ytick_8">
     <g id="line2d_27">
      <path d="M 90 60.398944 
L 648 60.398944 
" clip-path="url(#p1a29b56921)" style="fill: none; stroke: #b0b0b0; stroke-width: 0.8; stroke-linecap: square"/>
     </g>
     <g id="line2d_28">
      <g>
       <use xlink:href="#m2670bcb81c" x="90" y="60.398944" style="stroke: #000000; stroke-width: 0.8"/>
      </g>
     </g>
     <g id="text_15">
      <!-- 140000 -->
      <g transform="translate(44.825 64.198163) scale(0.1 -0.1)">
       <use xlink:href="#DejaVuSans-31"/>
       <use xlink:href="#DejaVuSans-34" x="63.623047"/>
       <use xlink:href="#DejaVuSans-30" x="127.246094"/>
       <use xlink:href="#DejaVuSans-30" x="190.869141"/>
       <use xlink:href="#DejaVuSans-30" x="254.492188"/>
       <use xlink:href="#DejaVuSans-30" x="318.115234"/>
      </g>
     </g>
    </g>
    <g id="text_16">
     <!-- Kumulative Summe -->
     <g transform="translate(38.745312 266.984219) rotate(-90) scale(0.1 -0.1)">
      <defs>
       <path id="DejaVuSans-4b" d="M 628 4666 
L 1259 4666 
L 1259 2694 
L 3353 4666 
L 4166 4666 
L 1850 2491 
L 4331 0 
L 3500 0 
L 1259 2247 
L 1259 0 
L 628 0 
L 628 4666 
z
" transform="scale(0.015625)"/>
       <path id="DejaVuSans-75" d="M 544 1381 
L 544 3500 
L 1119 3500 
L 1119 1403 
Q 1119 906 1312 657 
Q 1506 409 1894 409 
Q 2359 409 2629 706 
Q 2900 1003 2900 1516 
L 2900 3500 
L 3475 3500 
L 3475 0 
L 2900 0 
L 2900 538 
Q 2691 219 2414 64 
Q 2138 -91 1772 -91 
Q 1169 -91 856 284 
Q 544 659 544 1381 
z
M 1991 3584 
L 1991 3584 
z
" transform="scale(0.015625)"/>
       <path id="DejaVuSans-6c" d="M 603 4863 
L 1178 4863 
L 1178 0 
L 603 0 
L 603 4863 
z
" transform="scale(0.015625)"/>
       <path id="DejaVuSans-76" d="M 191 3500 
L 800 3500 
L 1894 563 
L 2988 3500 
L 3597 3500 
L 2284 0 
L 1503 0 
L 191 3500 
z
" transform="scale(0.015625)"/>
       <path id="DejaVuSans-53" d="M 3425 4513 
L 3425 3897 
Q 3066 4069 2747 4153 
Q 2428 4238 2131 4238 
Q 1616 4238 1336 4038 
Q 1056 3838 1056 3469 
Q 1056 3159 1242 3001 
Q 1428 2844 1947 2747 
L 2328 2669 
Q 3034 2534 3370 2195 
Q 3706 1856 3706 1288 
Q 3706 609 3251 259 
Q 2797 -91 1919 -91 
Q 1588 -91 1214 -16 
Q 841 59 441 206 
L 441 856 
Q 825 641 1194 531 
Q 1563 422 1919 422 
Q 2459 422 2753 634 
Q 3047 847 3047 1241 
Q 3047 1584 2836 1778 
Q 2625 1972 2144 2069 
L 1759 2144 
Q 1053 2284 737 2584 
Q 422 2884 422 3419 
Q 422 4038 858 4394 
Q 1294 4750 2059 4750 
Q 2388 4750 2728 4690 
Q 3069 4631 3425 4513 
z
" transform="scale(0.015625)"/>
      </defs>
      <use xlink:href="#DejaVuSans-4b"/>
      <use xlink:href="#DejaVuSans-75" x="60.576172"/>
      <use xlink:href="#DejaVuSans-6d" x="123.955078"/>
      <use xlink:href="#DejaVuSans-75" x="221.367188"/>
      <use xlink:href="#DejaVuSans-6c" x="284.746094"/>
      <use xlink:href="#DejaVuSans-61" x="312.529297"/>
      <use xlink:href="#DejaVuSans-74" x="373.808594"/>
      <use xlink:href="#DejaVuSans-69" x="413.017578"/>
      <use xlink:href="#DejaVuSans-76" x="440.800781"/>
      <use xlink:href="#DejaVuSans-65" x="499.980469"/>
      <use xlink:href="#DejaVuSans-20" x="561.503906"/>
      <use xlink:href="#DejaVuSans-53" x="593.291016"/>
      <use xlink:href="#DejaVuSans-75" x="656.767578"/>
      <use xlink:href="#DejaVuSans-6d" x="720.146484"/>
      <use xlink:href="#DejaVuSans-6d" x="817.558594"/>
      <use xlink:href="#DejaVuSans-65" x="914.970703"/>
     </g>
    </g>
   </g>
   <g id="line2d_29">
    <path d="M 115.363636 369.36 
L 115.518928 369.271725 
L 117.184045 369.161381 
L 117.526044 368.614074 
L 117.830343 368.50373 
L 118.300705 367.64084 
L 118.907508 367.530496 
L 119.158846 367.206085 
L 120.36168 367.095741 
L 120.52505 366.987604 
L 123.042025 366.877259 
L 123.696402 365.561959 
L 123.743977 365.451615 
L 124.133552 364.787344 
L 125.262779 364.677 
L 125.801362 363.646387 
L 126.070653 363.536043 
L 127.19988 361.053302 
L 131.752696 360.942958 
L 132.188948 360.163929 
L 132.249089 360.053585 
L 132.755357 359.10242 
L 132.812806 358.992076 
L 133.08838 358.608078 
L 133.260727 358.497734 
L 134.026411 356.908781 
L 134.093734 356.798437 
L 134.573072 355.913477 
L 136.411433 355.803133 
L 137.202251 354.152387 
L 137.329716 354.042043 
L 137.714802 353.388806 
L 137.78033 353.278462 
L 138.186959 352.57226 
L 139.023557 352.461916 
L 139.149227 352.446468 
L 139.545085 352.336124 
L 140.425667 350.46469 
L 142.766704 350.354346 
L 143.044074 349.965935 
L 145.244183 349.855591 
L 145.794435 348.796288 
L 145.953316 348.685944 
L 146.167852 348.452015 
L 147.640874 348.341671 
L 148.323976 346.95575 
L 149.615676 346.845406 
L 149.9487 346.320168 
L 150.151566 346.209824 
L 150.4424 345.78831 
L 150.971108 345.677966 
L 151.773596 343.99853 
L 151.841816 343.888186 
L 152.170352 343.373983 
L 152.999768 343.263639 
L 153.777122 341.645995 
L 154.884806 341.535651 
L 155.505971 340.302005 
L 155.567908 340.191661 
L 156.670207 337.775127 
L 156.776128 337.664783 
L 157.089403 337.188097 
L 157.15134 337.077753 
L 157.378443 336.812927 
L 157.470002 336.702583 
L 158.191702 335.221766 
L 159.733843 335.111422 
L 159.98159 334.795838 
L 161.15929 334.685494 
L 161.884581 333.19585 
L 163.286691 333.085506 
L 164.162784 331.225106 
L 166.456247 331.114762 
L 167.257837 329.437533 
L 168.99297 329.327189 
L 169.756859 327.742649 
L 169.855599 327.632305 
L 170.152717 327.195342 
L 171.661645 327.084998 
L 172.401299 325.560044 
L 173.681329 325.4497 
L 174.000888 324.957565 
L 176.508886 324.847221 
L 176.688414 324.69936 
L 181.329198 324.589016 
L 181.534757 324.377156 
L 182.433292 324.266812 
L 183.03022 323.092751 
L 183.241165 322.982407 
L 184.497857 320.18629 
L 184.548125 320.075946 
L 184.723164 319.939119 
L 185.163006 319.828775 
L 186.395462 317.092244 
L 187.549824 316.981899 
L 187.787698 316.690591 
L 188.196122 316.580247 
L 188.539918 316.028527 
L 188.734705 315.918183 
L 188.861272 315.900528 
L 188.953728 315.790184 
L 189.377413 315.042052 
L 189.450122 314.931708 
L 189.632342 314.777226 
L 190.161948 314.666882 
L 191.016499 312.859447 
L 191.538923 312.749103 
L 191.806419 312.384968 
L 191.894388 312.274624 
L 192.117899 312.018625 
L 192.343206 311.908281 
L 193.073883 310.405396 
L 193.147489 310.295052 
L 193.278544 310.266362 
L 193.361127 310.156018 
L 194.229142 308.31548 
L 194.524465 308.205136 
L 194.850307 307.697553 
L 195.332338 307.587209 
L 195.765897 306.814801 
L 198.32147 306.704457 
L 198.836714 305.731223 
L 199.132036 305.620879 
L 199.338493 305.406812 
L 200.509012 305.296468 
L 200.82139 304.821988 
L 202.710916 304.711644 
L 203.042144 304.19082 
L 206.040252 304.080476 
L 206.86159 302.354696 
L 206.909165 302.244352 
L 207.769999 300.421469 
L 210.817477 300.311125 
L 211.14332 299.803542 
L 211.355162 299.693198 
L 211.839886 298.794998 
L 214.401743 298.684654 
L 214.86223 297.846039 
L 215.206025 297.735695 
L 215.741017 296.713909 
L 216.705977 296.603565 
L 216.950134 296.296809 
L 219.353109 296.186465 
L 219.644841 295.762744 
L 222.099879 295.6524 
L 222.975075 293.794207 
L 224.011846 293.683863 
L 225.577325 290.128578 
L 226.731687 290.018234 
L 227.069198 289.481962 
L 227.577261 289.371618 
L 228.097891 288.385143 
L 228.726237 288.274799 
L 229.791732 285.948747 
L 229.863543 285.838403 
L 230.670519 284.147932 
L 230.750409 284.037588 
L 230.982897 283.759521 
L 232.773683 283.649177 
L 233.107604 283.121733 
L 233.383178 283.011389 
L 233.673115 282.592082 
L 235.349902 282.481737 
L 235.554563 282.272084 
L 235.887586 282.16174 
L 236.769964 280.285891 
L 238.688214 280.175547 
L 238.859663 280.047548 
L 239.200765 279.937204 
L 240.595693 276.801227 
L 240.707898 276.690883 
L 242.917881 271.551059 
L 244.424116 271.440715 
L 245.069517 270.147483 
L 247.95183 270.037139 
L 248.374617 269.291213 
L 251.354773 269.180869 
L 251.780253 268.428323 
L 254.776566 268.317979 
L 255.057526 267.92074 
L 258.265681 267.810396 
L 258.832988 266.709163 
L 261.635411 266.598819 
L 262.579726 264.570696 
L 262.677568 264.460352 
L 263.07971 263.765184 
L 263.313993 263.65484 
L 263.618292 263.200223 
L 264.620953 263.089879 
L 264.96385 262.540366 
L 265.216984 262.430022 
L 265.459346 262.127679 
L 268.444887 262.017335 
L 268.784194 261.476649 
L 269.864051 261.366305 
L 270.171941 260.90286 
L 271.40709 260.792516 
L 271.689845 260.390864 
L 275.634961 260.28052 
L 276.029024 259.605215 
L 277.16992 259.494871 
L 277.843148 258.133226 
L 279.405037 258.022881 
L 279.747037 257.475575 
L 282.38609 257.365231 
L 283.006357 256.133792 
L 283.281932 256.023448 
L 283.444404 255.917518 
L 283.767554 255.807174 
L 283.993758 255.544555 
L 287.376953 255.434211 
L 287.534937 255.339315 
L 287.901173 255.228971 
L 288.258433 254.644148 
L 289.288022 254.533804 
L 290.02229 253.02209 
L 291.337328 252.911746 
L 292.129044 251.258793 
L 292.734949 251.148449 
L 293.224162 250.239214 
L 293.815704 250.12887 
L 294.304019 249.221842 
L 296.181876 249.111498 
L 297.063356 247.237857 
L 297.28597 247.127513 
L 297.642332 246.544896 
L 297.699781 246.434552 
L 298.16745 245.578283 
L 298.687181 245.467939 
L 299.001354 244.989046 
L 299.224866 244.878702 
L 299.372079 244.810288 
L 301.247243 244.699944 
L 301.710424 243.854709 
L 301.80288 243.744365 
L 302.2131 243.029336 
L 302.887226 242.918992 
L 303.106249 242.674028 
L 303.614312 242.563684 
L 304.055052 241.773621 
L 304.90691 241.663277 
L 305.272248 241.058592 
L 306.657302 240.948247 
L 306.982247 240.442872 
L 307.599821 240.332528 
L 307.982215 239.685912 
L 312.662495 239.575568 
L 313.201077 238.544955 
L 317.832885 238.434611 
L 319.015073 235.821664 
L 319.100349 235.71132 
L 319.317577 235.47077 
L 319.4989 235.360426 
L 319.814868 234.877119 
L 319.919892 234.766775 
L 320.66134 233.237407 
L 321.472804 233.127063 
L 323.026614 229.600468 
L 323.10022 229.490124 
L 323.233968 229.454814 
L 323.487999 229.34447 
L 323.945794 228.512476 
L 324.177385 228.402132 
L 324.341652 228.291788 
L 327.231146 228.181444 
L 327.451965 227.932067 
L 333.413174 227.821723 
L 333.596292 227.665034 
L 337.599754 227.55469 
L 337.725423 227.539242 
L 338.272084 227.428898 
L 338.428273 227.338416 
L 338.649091 227.228072 
L 338.791816 227.170693 
L 346.754755 227.060349 
L 347.484534 225.55967 
L 347.599432 225.449326 
L 348.453085 223.644098 
L 350.390186 223.533754 
L 350.519446 223.509478 
L 351.278847 223.399134 
L 351.636106 222.814311 
L 356.06415 222.703967 
L 356.837914 221.095151 
L 360.730966 220.984807 
L 363.462476 214.562785 
L 365.066554 214.452441 
L 365.410349 213.900721 
L 365.578207 213.790377 
L 367.237938 210.00337 
L 367.334883 209.893026 
L 368.197512 208.065729 
L 368.250473 207.955385 
L 369.133748 206.07733 
L 370.156157 205.966986 
L 372.314076 200.95516 
L 373.004359 200.844816 
L 373.341871 200.308544 
L 376.055428 200.1982 
L 376.884845 198.452558 
L 377.039239 198.342214 
L 378.412624 195.259202 
L 379.742922 195.148858 
L 381.208763 191.838537 
L 381.314685 191.728193 
L 381.457409 191.670814 
L 384.296635 191.56047 
L 384.452824 191.469988 
L 384.977942 191.359644 
L 385.123359 191.295644 
L 385.721186 191.1853 
L 385.926744 190.97344 
L 385.990477 190.863096 
L 386.805531 189.152763 
L 387.179846 189.042419 
L 387.425799 188.731249 
L 387.583783 188.620905 
L 387.885389 188.172908 
L 388.373703 188.062564 
L 388.558617 187.901462 
L 388.788412 187.791118 
L 388.962553 187.656498 
L 389.173498 187.546154 
L 389.389829 187.307811 
L 389.675277 187.197467 
L 389.931104 186.862022 
L 389.982269 186.751677 
L 390.642033 185.423135 
L 390.912221 185.312791 
L 391.462473 184.253489 
L 391.541465 184.143145 
L 391.739843 183.948939 
L 391.81704 183.838595 
L 392.244315 183.081635 
L 392.358315 182.971291 
L 392.601575 182.666742 
L 393.004614 182.556398 
L 393.903148 180.640826 
L 393.983936 180.530482 
L 394.303495 180.038347 
L 399.508893 179.928003 
L 400.152499 178.639185 
L 400.235979 178.528841 
L 400.679412 177.732157 
L 403.494402 177.621813 
L 405.399188 173.232328 
L 405.458432 173.121984 
L 408.198918 166.677893 
L 408.358698 166.567549 
L 409.539988 163.956809 
L 410.226681 163.846465 
L 410.622539 163.166746 
L 410.733846 163.056402 
L 411.519278 161.418897 
L 411.604554 161.308553 
L 412.818159 158.618366 
L 414.292977 158.508022 
L 414.595481 158.057818 
L 417.066676 157.947474 
L 418.955305 153.597713 
L 419.044171 153.487369 
L 419.182407 153.441024 
L 419.26858 153.33068 
L 419.700344 152.562686 
L 419.827808 152.452342 
L 419.951682 152.441307 
L 420.08543 152.330963 
L 420.213792 152.308894 
L 420.755965 152.19855 
L 420.88702 152.169861 
L 424.269317 152.059517 
L 424.768403 151.126006 
L 427.00352 151.015662 
L 427.325772 150.516907 
L 427.520559 150.406563 
L 427.970275 149.594431 
L 429.103991 149.484087 
L 430.579706 146.149491 
L 431.783438 146.039147 
L 432.809437 143.810198 
L 432.875862 143.699854 
L 433.539216 142.362484 
L 436.136081 142.25214 
L 437.118993 140.129121 
L 439.767921 140.018777 
L 440.722109 137.966378 
L 442.595478 137.856034 
L 443.039808 137.057144 
L 444.157366 136.9468 
L 444.512831 136.36639 
L 448.035159 136.256046 
L 448.729033 134.843643 
L 459.680206 134.733298 
L 461.03115 131.705459 
L 461.445859 131.595115 
L 461.789654 131.043394 
L 462.551748 130.93305 
L 462.87759 130.425468 
L 463.384755 130.315124 
L 463.847936 129.469889 
L 469.01294 129.359545 
L 469.796577 127.726453 
L 469.905191 127.616109 
L 470.113443 127.397628 
L 473.806323 127.287284 
L 474.453519 125.989638 
L 477.033328 125.879294 
L 477.22632 125.69833 
L 477.313391 125.587986 
L 478.145501 123.835723 
L 480.646318 123.725379 
L 480.815972 123.601794 
L 483.716237 123.49145 
L 484.424473 122.043736 
L 486.193716 121.933392 
L 487.678408 118.576727 
L 487.736754 118.466383 
L 488.325604 117.312184 
L 488.37677 117.20184 
L 488.838155 116.361019 
L 488.998832 116.250675 
L 489.196312 116.058676 
L 490.898232 115.948332 
L 491.776122 114.083518 
L 495.161111 113.973174 
L 495.654812 113.052905 
L 515.250232 112.942561 
L 515.750216 112.006844 
L 524.731076 111.8965 
L 524.931249 111.69788 
L 526.937468 111.587536 
L 527.494003 110.512786 
L 530.734473 110.402442 
L 532.579118 106.160817 
L 537.924547 106.050473 
L 538.068169 105.990888 
L 602.123559 105.880544 
L 602.710613 104.730759 
L 604.331746 104.620415 
L 604.856864 103.622905 
L 604.924187 103.512561 
L 605.270675 102.95422 
L 622.636364 102.95422 
L 622.636364 102.95422 
" clip-path="url(#p1a29b56921)" style="fill: none; stroke: #1f77b4; stroke-width: 2; stroke-linecap: square"/>
   </g>
   <g id="line2d_30">
    <path d="M 115.363636 369.36 
L 115.544061 369.209932 
L 115.783731 369.099588 
L 115.931841 369.028968 
L 124.185615 368.918624 
L 124.453111 368.554489 
L 125.585929 368.444145 
L 126.08681 367.50622 
L 127.632541 367.395876 
L 128.388352 365.831198 
L 130.255437 365.720854 
L 130.413421 365.625958 
L 130.72939 365.515614 
L 131.064208 364.985963 
L 131.618051 364.875619 
L 132.270633 363.564732 
L 133.293042 363.454388 
L 133.831624 362.423775 
L 134.741828 362.313431 
L 135.249891 361.357852 
L 138.134897 361.247507 
L 138.492156 360.662684 
L 139.050486 360.55234 
L 139.394282 360.00062 
L 139.604329 359.890276 
L 139.932864 359.376073 
L 143.682294 359.265729 
L 144.036861 358.687526 
L 146.402135 358.577182 
L 146.695662 358.149047 
L 146.940717 358.038703 
L 147.503536 356.948504 
L 147.557394 356.83816 
L 147.872465 356.35706 
L 147.952354 356.246716 
L 148.575315 355.008656 
L 148.771897 354.898312 
L 149.631834 353.077636 
L 154.039232 352.967292 
L 154.953925 351.011996 
L 157.173781 350.901652 
L 157.954726 349.275181 
L 159.624331 349.164837 
L 160.122519 348.233533 
L 160.228441 348.123189 
L 161.12518 346.212031 
L 162.07488 346.101687 
L 162.708612 344.837144 
L 162.76247 344.7268 
L 163.570344 343.034123 
L 165.333303 342.923779 
L 166.286594 340.873587 
L 167.487633 340.763243 
L 167.828735 340.218144 
L 167.875412 340.1078 
L 168.525301 338.803533 
L 168.839474 338.693189 
L 169.055805 338.454846 
L 169.652733 338.344502 
L 169.817899 338.231951 
L 171.075488 338.121607 
L 171.594323 337.139545 
L 173.061959 337.029201 
L 173.551172 336.119967 
L 177.262902 336.009623 
L 177.718004 335.184249 
L 178.447783 335.073905 
L 178.65783 334.85101 
L 180.979119 334.740666 
L 181.665812 333.345918 
L 183.752818 333.235574 
L 184.894613 330.721937 
L 184.978991 330.611593 
L 185.197117 330.368836 
L 187.011241 330.258492 
L 187.526485 329.285258 
L 189.138642 329.174914 
L 190.165538 326.943758 
L 191.535333 326.833414 
L 192.678025 324.31757 
L 192.908718 324.207226 
L 194.325189 321.018284 
L 194.379945 320.90794 
L 195.089976 319.455812 
L 195.75692 319.345468 
L 197.554888 315.218602 
L 197.601565 315.108258 
L 198.531517 313.115445 
L 199.452493 313.005101 
L 199.899516 312.19959 
L 200.018004 312.089246 
L 200.356413 311.550767 
L 200.556587 311.440423 
L 201.286366 309.939744 
L 202.053845 309.8294 
L 202.273766 309.582229 
L 205.592331 309.471885 
L 206.01063 308.736994 
L 206.884929 308.62665 
L 207.219747 308.096999 
L 207.427102 307.986655 
L 207.684723 307.646795 
L 208.581463 307.536451 
L 209.044644 306.691216 
L 210.293257 306.580872 
L 210.562548 306.212323 
L 211.032013 306.101979 
L 211.334516 305.651775 
L 213.219554 305.541431 
L 213.543601 305.038263 
L 213.775192 304.927918 
L 214.23568 304.089304 
L 214.829018 303.97896 
L 217.199678 298.444104 
L 217.827126 298.33376 
L 218.113472 297.92328 
L 218.35763 297.812936 
L 219.395298 295.555297 
L 219.730117 295.444953 
L 220.45451 293.957516 
L 220.595439 293.847172 
L 221.591816 291.69105 
L 221.965233 291.580706 
L 222.551391 290.433128 
L 222.826965 290.322784 
L 224.779326 285.816334 
L 224.88794 285.70599 
L 225.061184 285.573577 
L 227.549434 285.463233 
L 228.46682 283.501316 
L 228.517087 283.390972 
L 229.750441 280.652234 
L 230.045763 280.54189 
L 230.378787 280.016652 
L 230.87159 279.906308 
L 233.29521 274.241246 
L 233.894832 274.130902 
L 234.238627 273.579182 
L 234.717067 273.468838 
L 235.073429 272.886221 
L 235.146138 272.775877 
L 235.561744 272.047607 
L 235.833728 271.937263 
L 236.559019 270.447618 
L 236.604798 270.337274 
L 238.301333 266.459785 
L 238.849789 266.349441 
L 241.037331 261.264789 
L 242.162968 261.154445 
L 242.558826 260.474726 
L 242.609093 260.364382 
L 242.791314 260.2099 
L 244.585691 260.099556 
L 245.714918 257.616815 
L 245.965359 257.506471 
L 246.418666 256.685512 
L 247.031752 256.575168 
L 247.355799 256.071999 
L 249.891624 255.961655 
L 250.194128 255.511452 
L 250.429309 255.401108 
L 251.806284 252.309268 
L 252.055827 252.198924 
L 252.240741 252.037822 
L 252.637496 251.927478 
L 254.266708 248.215505 
L 255.704722 248.105161 
L 256.228943 247.109858 
L 256.299856 246.999514 
L 256.861777 245.911522 
L 256.939871 245.801178 
L 257.633745 244.388774 
L 257.915603 244.27843 
L 258.073587 244.183534 
L 262.146167 244.07319 
L 262.639867 243.152921 
L 262.68834 243.042577 
L 263.256544 241.939137 
L 264.190087 241.828793 
L 265.012322 240.100805 
L 265.090417 239.990461 
L 266.117314 237.759305 
L 267.610084 237.648961 
L 268.702509 235.256703 
L 269.25276 235.146359 
L 269.661185 234.435743 
L 270.853248 234.325399 
L 271.350539 233.396303 
L 271.40709 233.285959 
L 271.987861 232.151622 
L 272.053388 232.041278 
L 272.526443 231.171767 
L 272.680837 231.061423 
L 273.679009 228.900887 
L 274.019214 228.790543 
L 275.458126 225.546429 
L 275.518268 225.436085 
L 275.722032 225.228638 
L 275.937465 225.118294 
L 276.79022 223.315273 
L 276.91948 223.204929 
L 277.08285 223.096792 
L 277.993951 222.986448 
L 278.52625 221.971283 
L 278.595368 221.860939 
L 279.630344 219.60992 
L 279.76499 219.499576 
L 280.364611 218.318895 
L 281.992925 218.208551 
L 282.307098 217.729658 
L 282.510862 217.619314 
L 282.676925 217.504557 
L 282.771177 217.394212 
L 283.055728 216.988146 
L 283.102405 216.877802 
L 283.653554 215.816293 
L 283.849239 215.705949 
L 284.187648 215.16747 
L 284.413853 215.057126 
L 287.245898 208.387933 
L 287.941567 208.277589 
L 288.518747 207.15208 
L 288.586968 207.041736 
L 288.812275 206.781324 
L 289.07259 206.67098 
L 289.866101 205.013613 
L 290.095896 204.903269 
L 290.370573 204.521479 
L 290.635376 204.411135 
L 291.173061 203.382729 
L 291.523139 203.272385 
L 292.436934 201.319295 
L 292.73854 201.208951 
L 292.914477 201.069918 
L 295.131641 200.959574 
L 295.848853 199.489791 
L 296.946663 199.379447 
L 297.770694 197.647046 
L 297.828143 197.536702 
L 298.059733 197.260842 
L 298.156678 197.150498 
L 298.344284 196.982775 
L 298.633323 196.872431 
L 298.945701 196.397952 
L 299.467228 196.287608 
L 301.180818 192.368188 
L 301.931242 192.257844 
L 302.249903 191.767917 
L 302.994942 191.657573 
L 304.070312 189.307245 
L 304.281256 189.196901 
L 305.000264 187.722705 
L 305.094516 187.612361 
L 305.591807 186.683264 
L 305.785696 186.57292 
L 306.165397 185.932925 
L 306.603444 185.822581 
L 306.923003 185.330446 
L 307.245254 185.220102 
L 308.121348 183.359702 
L 309.619505 183.249358 
L 310.201174 182.112815 
L 313.389581 182.002471 
L 314.467643 179.645522 
L 314.574462 179.535178 
L 314.889533 179.054078 
L 317.349956 178.943734 
L 317.604885 178.610496 
L 317.913672 178.500152 
L 318.25657 177.950638 
L 318.497137 177.840294 
L 318.984554 176.935473 
L 319.030333 176.825129 
L 319.768191 175.304589 
L 319.827435 175.194245 
L 320.189183 174.598387 
L 321.306741 174.488043 
L 321.869559 173.397844 
L 322.141544 173.2875 
L 322.459307 172.799779 
L 323.137921 172.689435 
L 323.543653 171.98544 
L 325.076817 171.875096 
L 325.35688 171.480065 
L 332.455395 171.369721 
L 333.594496 168.862705 
L 334.475079 168.752361 
L 335.939125 165.446454 
L 335.998369 165.33611 
L 336.520794 164.34522 
L 339.645469 164.234876 
L 340.178665 163.217504 
L 345.192867 163.10716 
L 345.526788 162.579716 
L 345.694646 162.469372 
L 345.887638 162.288408 
L 347.243967 162.178064 
L 347.385794 162.122892 
L 347.697274 162.012548 
L 348.55003 160.209526 
L 348.616455 160.099182 
L 348.941399 159.593807 
L 349.078738 159.483463 
L 350.032029 157.433271 
L 350.078706 157.322927 
L 350.535603 156.49314 
L 350.621776 156.382796 
L 351.212421 155.224183 
L 351.314752 155.113839 
L 351.670216 154.53343 
L 351.888342 154.423086 
L 352.171098 154.021434 
L 353.110924 153.91109 
L 353.238389 153.891228 
L 353.675538 153.780884 
L 353.901743 153.518265 
L 353.985223 153.407921 
L 354.179112 153.22475 
L 354.331711 153.114406 
L 355.078545 151.571796 
L 355.28949 151.461452 
L 355.766135 150.583114 
L 356.020166 150.47277 
L 356.269709 150.152772 
L 357.984196 150.042428 
L 358.778605 148.382854 
L 359.177156 148.27251 
L 359.682526 147.323551 
L 359.827943 147.213207 
L 360.368321 146.17818 
L 360.419486 146.067836 
L 361.01821 144.889362 
L 361.08284 144.779018 
L 361.26147 144.633364 
L 361.398808 144.52302 
L 361.688745 144.103713 
L 361.809028 143.993369 
L 362.193217 143.342339 
L 362.324272 143.231995 
L 362.546886 142.978204 
L 362.634855 142.86786 
L 363.01276 142.232278 
L 363.098933 142.121934 
L 363.365531 141.760006 
L 364.177893 141.649662 
L 365.473183 138.758648 
L 367.732536 138.648304 
L 368.023371 138.22679 
L 368.891386 138.116446 
L 369.026031 138.078929 
L 369.834803 137.968585 
L 369.958677 137.957551 
L 370.829385 137.847207 
L 371.198313 137.233694 
L 376.080562 137.12335 
L 376.585034 136.176598 
L 376.649664 136.066254 
L 377.322892 134.704609 
L 377.459333 134.594265 
L 378.098451 133.316481 
L 378.264513 133.206137 
L 378.69897 132.431522 
L 378.74834 132.321178 
L 379.249221 131.383254 
L 379.313851 131.27291 
L 379.442213 131.250841 
L 382.355046 131.140497 
L 383.490557 128.642308 
L 383.551596 128.531964 
L 383.75536 128.324518 
L 388.117877 128.214174 
L 388.368318 127.891969 
L 388.424869 127.781625 
L 388.834191 127.068803 
L 391.510945 126.958459 
L 391.70663 126.770874 
L 392.938189 126.66053 
L 393.092582 126.574461 
L 397.731571 126.464117 
L 398.052028 125.969776 
L 398.108579 125.859432 
L 398.300673 125.680675 
L 402.255663 125.570331 
L 402.520465 125.212816 
L 402.901961 125.102472 
L 403.044686 125.045093 
L 414.089214 124.934749 
L 414.704993 123.714344 
L 415.100851 123.604 
L 415.500299 122.915454 
L 415.645716 122.80511 
L 415.792031 122.738903 
L 416.015543 122.628559 
L 416.788409 121.02195 
L 417.148361 120.911606 
L 417.307243 120.814504 
L 419.867304 120.70416 
L 421.955208 115.864471 
L 422.052153 115.754127 
L 422.230783 115.608473 
L 428.753912 115.498129 
L 428.949597 115.310544 
L 434.311184 115.2002 
L 435.168428 113.386144 
L 435.220491 113.2758 
L 435.436821 113.037457 
L 435.542742 112.927113 
L 435.798569 112.591667 
L 444.029004 112.481323 
L 444.265981 112.192222 
L 447.631222 112.081878 
L 447.852041 111.8325 
L 449.555756 111.722156 
L 450.263095 110.276649 
L 450.375299 110.166305 
L 450.500968 110.150857 
L 452.747754 110.040513 
L 453.412006 108.700937 
L 453.525108 108.590593 
L 453.666935 108.535421 
L 453.883265 108.425077 
L 454.24232 107.83584 
L 456.383185 107.725496 
L 456.567201 107.5666 
L 459.910899 107.456256 
L 461.557166 103.702353 
L 461.930583 103.592009 
L 462.400047 102.731325 
L 462.521228 102.620981 
L 462.823732 102.170778 
L 475.799077 102.060433 
L 478.36991 96.033443 
L 486.937857 95.923099 
L 487.664943 94.429041 
L 489.344422 94.318697 
L 489.864154 93.334428 
L 489.94943 93.224084 
L 490.623555 91.860232 
L 490.795902 91.749888 
L 491.538248 90.218313 
L 491.649555 90.107969 
L 491.931413 89.708524 
L 492.124405 89.59818 
L 492.513979 88.933909 
L 495.268828 88.823565 
L 495.60993 88.278465 
L 497.369299 88.168121 
L 497.952763 87.027164 
L 499.011975 86.91682 
L 499.312683 86.47103 
L 500.008352 86.360686 
L 500.81443 84.672422 
L 500.861108 84.562078 
L 501.346729 83.661671 
L 501.461627 83.551327 
L 501.834146 82.928987 
L 501.92391 82.818643 
L 502.461595 81.790237 
L 508.543984 81.679893 
L 508.700173 81.58941 
L 509.217212 81.479066 
L 509.447007 81.20762 
L 512.395745 81.097276 
L 512.85354 80.265282 
L 513.019603 80.154938 
L 513.244013 79.896733 
L 513.335572 79.786389 
L 513.873256 78.757983 
L 515.357948 78.647639 
L 515.979113 77.413993 
L 517.566136 77.303649 
L 517.843505 76.915238 
L 544.152354 76.804894 
L 544.711582 75.723522 
L 544.803141 75.613178 
L 545.523943 74.134568 
L 545.584983 74.024224 
L 545.795927 73.799123 
L 546.773454 73.688778 
L 547.175596 72.993611 
L 547.30306 72.883267 
L 547.568761 72.523546 
L 548.131579 72.413202 
L 549.422382 69.533223 
L 551.819971 69.422879 
L 552.319955 68.487161 
L 552.511151 68.376817 
L 552.755309 68.070061 
L 621.943388 67.959717 
L 622.468505 66.962207 
L 622.636364 66.96 
L 622.636364 66.96 
" clip-path="url(#p1a29b56921)" style="fill: none; stroke: #ff0000; stroke-width: 2; stroke-linecap: square"/>
   </g>
   <g id="patch_3">
    <path d="M 90 384.48 
L 90 51.84 
" style="fill: none; stroke: #000000; stroke-width: 0.8; stroke-linejoin: miter; stroke-linecap: square"/>
   </g>
   <g id="patch_4">
    <path d="M 648 384.48 
L 648 51.84 
" style="fill: none; stroke: #000000; stroke-width: 0.8; stroke-linejoin: miter; stroke-linecap: square"/>
   </g>
   <g id="patch_5">
    <path d="M 90 384.48 
L 648 384.48 
" style="fill: none; stroke: #000000; stroke-width: 0.8; stroke-linejoin: miter; stroke-linecap: square"/>
   </g>
   <g id="patch_6">
    <path d="M 90 51.84 
L 648 51.84 
" style="fill: none; stroke: #000000; stroke-width: 0.8; stroke-linejoin: miter; stroke-linecap: square"/>
   </g>
   <g id="text_17">
    <!-- Maus in Modul -->
    <g transform="translate(325.808438 45.84) scale(0.12 -0.12)">
     <defs>
      <path id="DejaVuSans-4d" d="M 628 4666 
L 1569 4666 
L 2759 1491 
L 3956 4666 
L 4897 4666 
L 4897 0 
L 4281 0 
L 4281 4097 
L 3078 897 
L 2444 897 
L 1241 4097 
L 1241 0 
L 628 0 
L 628 4666 
z
" transform="scale(0.015625)"/>
      <path id="DejaVuSans-6f" d="M 1959 3097 
Q 1497 3097 1228 2736 
Q 959 2375 959 1747 
Q 959 1119 1226 758 
Q 1494 397 1959 397 
Q 2419 397 2687 759 
Q 2956 1122 2956 1747 
Q 2956 2369 2687 2733 
Q 2419 3097 1959 3097 
z
M 1959 3584 
Q 2709 3584 3137 3096 
Q 3566 2609 3566 1747 
Q 3566 888 3137 398 
Q 2709 -91 1959 -91 
Q 1206 -91 779 398 
Q 353 888 353 1747 
Q 353 2609 779 3096 
Q 1206 3584 1959 3584 
z
" transform="scale(0.015625)"/>
      <path id="DejaVuSans-64" d="M 2906 2969 
L 2906 4863 
L 3481 4863 
L 3481 0 
L 2906 0 
L 2906 525 
Q 2725 213 2448 61 
Q 2172 -91 1784 -91 
Q 1150 -91 751 415 
Q 353 922 353 1747 
Q 353 2572 751 3078 
Q 1150 3584 1784 3584 
Q 2172 3584 2448 3432 
Q 2725 3281 2906 2969 
z
M 947 1747 
Q 947 1113 1208 752 
Q 1469 391 1925 391 
Q 2381 391 2643 752 
Q 2906 1113 2906 1747 
Q 2906 2381 2643 2742 
Q 2381 3103 1925 3103 
Q 1469 3103 1208 2742 
Q 947 2381 947 1747 
z
" transform="scale(0.015625)"/>
     </defs>
     <use xlink:href="#DejaVuSans-4d"/>
     <use xlink:href="#DejaVuSans-61" x="86.279297"/>
     <use xlink:href="#DejaVuSans-75" x="147.558594"/>
     <use xlink:href="#DejaVuSans-73" x="210.9375"/>
     <use xlink:href="#DejaVuSans-20" x="263.037109"/>
     <use xlink:href="#DejaVuSans-69" x="294.824219"/>
     <use xlink:href="#DejaVuSans-6e" x="322.607422"/>
     <use xlink:href="#DejaVuSans-20" x="385.986328"/>
     <use xlink:href="#DejaVuSans-4d" x="417.773438"/>
     <use xlink:href="#DejaVuSans-6f" x="504.052734"/>
     <use xlink:href="#DejaVuSans-64" x="565.234375"/>
     <use xlink:href="#DejaVuSans-75" x="628.710938"/>
     <use xlink:href="#DejaVuSans-6c" x="692.089844"/>
    </g>
   </g>
   <g id="legend_1">
    <g id="patch_7">
     <path d="M 97 89.19625 
L 165.573438 89.19625 
Q 167.573438 89.19625 167.573438 87.19625 
L 167.573438 58.84 
Q 167.573438 56.84 165.573438 56.84 
L 97 56.84 
Q 95 56.84 95 58.84 
L 95 87.19625 
Q 95 89.19625 97 89.19625 
z
" style="fill: #ffffff; opacity: 0.8; stroke: #cccccc; stroke-linejoin: miter"/>
    </g>
    <g id="line2d_31">
     <path d="M 99 64.938437 
L 109 64.938437 
L 119 64.938437 
" style="fill: none; stroke: #1f77b4; stroke-width: 2; stroke-linecap: square"/>
    </g>
    <g id="text_18">
     <!-- Modul1 -->
     <g transform="translate(127 68.438437) scale(0.1 -0.1)">
      <use xlink:href="#DejaVuSans-4d"/>
      <use xlink:href="#DejaVuSans-6f" x="86.279297"/>
      <use xlink:href="#DejaVuSans-64" x="147.460938"/>
      <use xlink:href="#DejaVuSans-75" x="210.9375"/>
      <use xlink:href="#DejaVuSans-6c" x="274.316406"/>
      <use xlink:href="#DejaVuSans-31" x="302.099609"/>
     </g>
    </g>
    <g id="line2d_32">
     <path d="M 99 79.616562 
L 109 79.616562 
L 119 79.616562 
" style="fill: none; stroke: #ff0000; stroke-width: 2; stroke-linecap: square"/>
    </g>
    <g id="text_19">
     <!-- Modul2 -->
     <g transform="translate(127 83.116562) scale(0.1 -0.1)">
      <use xlink:href="#DejaVuSans-4d"/>
      <use xlink:href="#DejaVuSans-6f" x="86.279297"/>
      <use xlink:href="#DejaVuSans-64" x="147.460938"/>
      <use xlink:href="#DejaVuSans-75" x="210.9375"/>
      <use xlink:href="#DejaVuSans-6c" x="274.316406"/>
      <use xlink:href="#DejaVuSans-32" x="302.099609"/>
     </g>
    </g>
   </g>
  </g>
 </g>
 <defs>
  <clipPath id="p1a29b56921">
   <rect x="90" y="51.84" width="558" height="332.64"/>
  </clipPath>
 </defs>
</svg>
