<?xml version="1.0" encoding="utf-8" standalone="no"?>
<!DOCTYPE svg PUBLIC "-//W3C//DTD SVG 1.1//EN"
  "http://www.w3.org/Graphics/SVG/1.1/DTD/svg11.dtd">
<svg xmlns:xlink="http://www.w3.org/1999/xlink" width="720pt" height="432pt" viewBox="0 0 720 432" xmlns="http://www.w3.org/2000/svg" version="1.1">
 <metadata>
  <rdf:RDF xmlns:dc="http://purl.org/dc/elements/1.1/" xmlns:cc="http://creativecommons.org/ns#" xmlns:rdf="http://www.w3.org/1999/02/22-rdf-syntax-ns#">
   <cc:Work>
    <dc:type rdf:resource="http://purl.org/dc/dcmitype/StillImage"/>
    <dc:date>2024-12-10T23:38:16.676840</dc:date>
    <dc:format>image/svg+xml</dc:format>
    <dc:creator>
     <cc:Agent>
      <dc:title>Matplotlib v3.8.3, https://matplotlib.org/</dc:title>
     </cc:Agent>
    </dc:creator>
   </cc:Work>
  </rdf:RDF>
 </metadata>
 <defs>
  <style type="text/css">*{stroke-linejoin: round; stroke-linecap: butt}</style>
 </defs>
 <g id="figure_1">
  <g id="patch_1">
   <path d="M 0 432 
L 720 432 
L 720 0 
L 0 0 
z
" style="fill: #ffffff"/>
  </g>
  <g id="axes_1">
   <g id="patch_2">
    <path d="M 90 384.48 
L 648 384.48 
L 648 51.84 
L 90 51.84 
z
" style="fill: #ffffff"/>
   </g>
   <g id="matplotlib.axis_1">
    <g id="xtick_1">
     <g id="line2d_1">
      <path d="M 115.363636 384.48 
L 115.363636 51.84 
" clip-path="url(#pf1b3a71883)" style="fill: none; stroke: #b0b0b0; stroke-width: 0.8; stroke-linecap: square"/>
     </g>
     <g id="line2d_2">
      <defs>
       <path id="m8ab185c076" d="M 0 0 
L 0 3.5 
" style="stroke: #000000; stroke-width: 0.8"/>
      </defs>
      <g>
       <use xlink:href="#m8ab185c076" x="115.363636" y="384.48" style="stroke: #000000; stroke-width: 0.8"/>
      </g>
     </g>
     <g id="text_1">
      <!-- 0 -->
      <g transform="translate(112.182386 399.078438) scale(0.1 -0.1)">
       <defs>
        <path id="DejaVuSans-30" d="M 2034 4250 
Q 1547 4250 1301 3770 
Q 1056 3291 1056 2328 
Q 1056 1369 1301 889 
Q 1547 409 2034 409 
Q 2525 409 2770 889 
Q 3016 1369 3016 2328 
Q 3016 3291 2770 3770 
Q 2525 4250 2034 4250 
z
M 2034 4750 
Q 2819 4750 3233 4129 
Q 3647 3509 3647 2328 
Q 3647 1150 3233 529 
Q 2819 -91 2034 -91 
Q 1250 -91 836 529 
Q 422 1150 422 2328 
Q 422 3509 836 4129 
Q 1250 4750 2034 4750 
z
" transform="scale(0.015625)"/>
       </defs>
       <use xlink:href="#DejaVuSans-30"/>
      </g>
     </g>
    </g>
    <g id="xtick_2">
     <g id="line2d_3">
      <path d="M 205.127355 384.48 
L 205.127355 51.84 
" clip-path="url(#pf1b3a71883)" style="fill: none; stroke: #b0b0b0; stroke-width: 0.8; stroke-linecap: square"/>
     </g>
     <g id="line2d_4">
      <g>
       <use xlink:href="#m8ab185c076" x="205.127355" y="384.48" style="stroke: #000000; stroke-width: 0.8"/>
      </g>
     </g>
     <g id="text_2">
      <!-- 100000 -->
      <g transform="translate(186.039855 399.078438) scale(0.1 -0.1)">
       <defs>
        <path id="DejaVuSans-31" d="M 794 531 
L 1825 531 
L 1825 4091 
L 703 3866 
L 703 4441 
L 1819 4666 
L 2450 4666 
L 2450 531 
L 3481 531 
L 3481 0 
L 794 0 
L 794 531 
z
" transform="scale(0.015625)"/>
       </defs>
       <use xlink:href="#DejaVuSans-31"/>
       <use xlink:href="#DejaVuSans-30" x="63.623047"/>
       <use xlink:href="#DejaVuSans-30" x="127.246094"/>
       <use xlink:href="#DejaVuSans-30" x="190.869141"/>
       <use xlink:href="#DejaVuSans-30" x="254.492188"/>
       <use xlink:href="#DejaVuSans-30" x="318.115234"/>
      </g>
     </g>
    </g>
    <g id="xtick_3">
     <g id="line2d_5">
      <path d="M 294.891074 384.48 
L 294.891074 51.84 
" clip-path="url(#pf1b3a71883)" style="fill: none; stroke: #b0b0b0; stroke-width: 0.8; stroke-linecap: square"/>
     </g>
     <g id="line2d_6">
      <g>
       <use xlink:href="#m8ab185c076" x="294.891074" y="384.48" style="stroke: #000000; stroke-width: 0.8"/>
      </g>
     </g>
     <g id="text_3">
      <!-- 200000 -->
      <g transform="translate(275.803574 399.078438) scale(0.1 -0.1)">
       <defs>
        <path id="DejaVuSans-32" d="M 1228 531 
L 3431 531 
L 3431 0 
L 469 0 
L 469 531 
Q 828 903 1448 1529 
Q 2069 2156 2228 2338 
Q 2531 2678 2651 2914 
Q 2772 3150 2772 3378 
Q 2772 3750 2511 3984 
Q 2250 4219 1831 4219 
Q 1534 4219 1204 4116 
Q 875 4013 500 3803 
L 500 4441 
Q 881 4594 1212 4672 
Q 1544 4750 1819 4750 
Q 2544 4750 2975 4387 
Q 3406 4025 3406 3419 
Q 3406 3131 3298 2873 
Q 3191 2616 2906 2266 
Q 2828 2175 2409 1742 
Q 1991 1309 1228 531 
z
" transform="scale(0.015625)"/>
       </defs>
       <use xlink:href="#DejaVuSans-32"/>
       <use xlink:href="#DejaVuSans-30" x="63.623047"/>
       <use xlink:href="#DejaVuSans-30" x="127.246094"/>
       <use xlink:href="#DejaVuSans-30" x="190.869141"/>
       <use xlink:href="#DejaVuSans-30" x="254.492188"/>
       <use xlink:href="#DejaVuSans-30" x="318.115234"/>
      </g>
     </g>
    </g>
    <g id="xtick_4">
     <g id="line2d_7">
      <path d="M 384.654793 384.48 
L 384.654793 51.84 
" clip-path="url(#pf1b3a71883)" style="fill: none; stroke: #b0b0b0; stroke-width: 0.8; stroke-linecap: square"/>
     </g>
     <g id="line2d_8">
      <g>
       <use xlink:href="#m8ab185c076" x="384.654793" y="384.48" style="stroke: #000000; stroke-width: 0.8"/>
      </g>
     </g>
     <g id="text_4">
      <!-- 300000 -->
      <g transform="translate(365.567293 399.078438) scale(0.1 -0.1)">
       <defs>
        <path id="DejaVuSans-33" d="M 2597 2516 
Q 3050 2419 3304 2112 
Q 3559 1806 3559 1356 
Q 3559 666 3084 287 
Q 2609 -91 1734 -91 
Q 1441 -91 1130 -33 
Q 819 25 488 141 
L 488 750 
Q 750 597 1062 519 
Q 1375 441 1716 441 
Q 2309 441 2620 675 
Q 2931 909 2931 1356 
Q 2931 1769 2642 2001 
Q 2353 2234 1838 2234 
L 1294 2234 
L 1294 2753 
L 1863 2753 
Q 2328 2753 2575 2939 
Q 2822 3125 2822 3475 
Q 2822 3834 2567 4026 
Q 2313 4219 1838 4219 
Q 1578 4219 1281 4162 
Q 984 4106 628 3988 
L 628 4550 
Q 988 4650 1302 4700 
Q 1616 4750 1894 4750 
Q 2613 4750 3031 4423 
Q 3450 4097 3450 3541 
Q 3450 3153 3228 2886 
Q 3006 2619 2597 2516 
z
" transform="scale(0.015625)"/>
       </defs>
       <use xlink:href="#DejaVuSans-33"/>
       <use xlink:href="#DejaVuSans-30" x="63.623047"/>
       <use xlink:href="#DejaVuSans-30" x="127.246094"/>
       <use xlink:href="#DejaVuSans-30" x="190.869141"/>
       <use xlink:href="#DejaVuSans-30" x="254.492188"/>
       <use xlink:href="#DejaVuSans-30" x="318.115234"/>
      </g>
     </g>
    </g>
    <g id="xtick_5">
     <g id="line2d_9">
      <path d="M 474.418511 384.48 
L 474.418511 51.84 
" clip-path="url(#pf1b3a71883)" style="fill: none; stroke: #b0b0b0; stroke-width: 0.8; stroke-linecap: square"/>
     </g>
     <g id="line2d_10">
      <g>
       <use xlink:href="#m8ab185c076" x="474.418511" y="384.48" style="stroke: #000000; stroke-width: 0.8"/>
      </g>
     </g>
     <g id="text_5">
      <!-- 400000 -->
      <g transform="translate(455.331011 399.078438) scale(0.1 -0.1)">
       <defs>
        <path id="DejaVuSans-34" d="M 2419 4116 
L 825 1625 
L 2419 1625 
L 2419 4116 
z
M 2253 4666 
L 3047 4666 
L 3047 1625 
L 3713 1625 
L 3713 1100 
L 3047 1100 
L 3047 0 
L 2419 0 
L 2419 1100 
L 313 1100 
L 313 1709 
L 2253 4666 
z
" transform="scale(0.015625)"/>
       </defs>
       <use xlink:href="#DejaVuSans-34"/>
       <use xlink:href="#DejaVuSans-30" x="63.623047"/>
       <use xlink:href="#DejaVuSans-30" x="127.246094"/>
       <use xlink:href="#DejaVuSans-30" x="190.869141"/>
       <use xlink:href="#DejaVuSans-30" x="254.492188"/>
       <use xlink:href="#DejaVuSans-30" x="318.115234"/>
      </g>
     </g>
    </g>
    <g id="xtick_6">
     <g id="line2d_11">
      <path d="M 564.18223 384.48 
L 564.18223 51.84 
" clip-path="url(#pf1b3a71883)" style="fill: none; stroke: #b0b0b0; stroke-width: 0.8; stroke-linecap: square"/>
     </g>
     <g id="line2d_12">
      <g>
       <use xlink:href="#m8ab185c076" x="564.18223" y="384.48" style="stroke: #000000; stroke-width: 0.8"/>
      </g>
     </g>
     <g id="text_6">
      <!-- 500000 -->
      <g transform="translate(545.09473 399.078438) scale(0.1 -0.1)">
       <defs>
        <path id="DejaVuSans-35" d="M 691 4666 
L 3169 4666 
L 3169 4134 
L 1269 4134 
L 1269 2991 
Q 1406 3038 1543 3061 
Q 1681 3084 1819 3084 
Q 2600 3084 3056 2656 
Q 3513 2228 3513 1497 
Q 3513 744 3044 326 
Q 2575 -91 1722 -91 
Q 1428 -91 1123 -41 
Q 819 9 494 109 
L 494 744 
Q 775 591 1075 516 
Q 1375 441 1709 441 
Q 2250 441 2565 725 
Q 2881 1009 2881 1497 
Q 2881 1984 2565 2268 
Q 2250 2553 1709 2553 
Q 1456 2553 1204 2497 
Q 953 2441 691 2322 
L 691 4666 
z
" transform="scale(0.015625)"/>
       </defs>
       <use xlink:href="#DejaVuSans-35"/>
       <use xlink:href="#DejaVuSans-30" x="63.623047"/>
       <use xlink:href="#DejaVuSans-30" x="127.246094"/>
       <use xlink:href="#DejaVuSans-30" x="190.869141"/>
       <use xlink:href="#DejaVuSans-30" x="254.492188"/>
       <use xlink:href="#DejaVuSans-30" x="318.115234"/>
      </g>
     </g>
    </g>
    <g id="text_7">
     <!-- Zeit in frames -->
     <g transform="translate(333.982031 412.756563) scale(0.1 -0.1)">
      <defs>
       <path id="DejaVuSans-5a" d="M 359 4666 
L 4025 4666 
L 4025 4184 
L 1075 531 
L 4097 531 
L 4097 0 
L 288 0 
L 288 481 
L 3238 4134 
L 359 4134 
L 359 4666 
z
" transform="scale(0.015625)"/>
       <path id="DejaVuSans-65" d="M 3597 1894 
L 3597 1613 
L 953 1613 
Q 991 1019 1311 708 
Q 1631 397 2203 397 
Q 2534 397 2845 478 
Q 3156 559 3463 722 
L 3463 178 
Q 3153 47 2828 -22 
Q 2503 -91 2169 -91 
Q 1331 -91 842 396 
Q 353 884 353 1716 
Q 353 2575 817 3079 
Q 1281 3584 2069 3584 
Q 2775 3584 3186 3129 
Q 3597 2675 3597 1894 
z
M 3022 2063 
Q 3016 2534 2758 2815 
Q 2500 3097 2075 3097 
Q 1594 3097 1305 2825 
Q 1016 2553 972 2059 
L 3022 2063 
z
" transform="scale(0.015625)"/>
       <path id="DejaVuSans-69" d="M 603 3500 
L 1178 3500 
L 1178 0 
L 603 0 
L 603 3500 
z
M 603 4863 
L 1178 4863 
L 1178 4134 
L 603 4134 
L 603 4863 
z
" transform="scale(0.015625)"/>
       <path id="DejaVuSans-74" d="M 1172 4494 
L 1172 3500 
L 2356 3500 
L 2356 3053 
L 1172 3053 
L 1172 1153 
Q 1172 725 1289 603 
Q 1406 481 1766 481 
L 2356 481 
L 2356 0 
L 1766 0 
Q 1100 0 847 248 
Q 594 497 594 1153 
L 594 3053 
L 172 3053 
L 172 3500 
L 594 3500 
L 594 4494 
L 1172 4494 
z
" transform="scale(0.015625)"/>
       <path id="DejaVuSans-20" transform="scale(0.015625)"/>
       <path id="DejaVuSans-6e" d="M 3513 2113 
L 3513 0 
L 2938 0 
L 2938 2094 
Q 2938 2591 2744 2837 
Q 2550 3084 2163 3084 
Q 1697 3084 1428 2787 
Q 1159 2491 1159 1978 
L 1159 0 
L 581 0 
L 581 3500 
L 1159 3500 
L 1159 2956 
Q 1366 3272 1645 3428 
Q 1925 3584 2291 3584 
Q 2894 3584 3203 3211 
Q 3513 2838 3513 2113 
z
" transform="scale(0.015625)"/>
       <path id="DejaVuSans-66" d="M 2375 4863 
L 2375 4384 
L 1825 4384 
Q 1516 4384 1395 4259 
Q 1275 4134 1275 3809 
L 1275 3500 
L 2222 3500 
L 2222 3053 
L 1275 3053 
L 1275 0 
L 697 0 
L 697 3053 
L 147 3053 
L 147 3500 
L 697 3500 
L 697 3744 
Q 697 4328 969 4595 
Q 1241 4863 1831 4863 
L 2375 4863 
z
" transform="scale(0.015625)"/>
       <path id="DejaVuSans-72" d="M 2631 2963 
Q 2534 3019 2420 3045 
Q 2306 3072 2169 3072 
Q 1681 3072 1420 2755 
Q 1159 2438 1159 1844 
L 1159 0 
L 581 0 
L 581 3500 
L 1159 3500 
L 1159 2956 
Q 1341 3275 1631 3429 
Q 1922 3584 2338 3584 
Q 2397 3584 2469 3576 
Q 2541 3569 2628 3553 
L 2631 2963 
z
" transform="scale(0.015625)"/>
       <path id="DejaVuSans-61" d="M 2194 1759 
Q 1497 1759 1228 1600 
Q 959 1441 959 1056 
Q 959 750 1161 570 
Q 1363 391 1709 391 
Q 2188 391 2477 730 
Q 2766 1069 2766 1631 
L 2766 1759 
L 2194 1759 
z
M 3341 1997 
L 3341 0 
L 2766 0 
L 2766 531 
Q 2569 213 2275 61 
Q 1981 -91 1556 -91 
Q 1019 -91 701 211 
Q 384 513 384 1019 
Q 384 1609 779 1909 
Q 1175 2209 1959 2209 
L 2766 2209 
L 2766 2266 
Q 2766 2663 2505 2880 
Q 2244 3097 1772 3097 
Q 1472 3097 1187 3025 
Q 903 2953 641 2809 
L 641 3341 
Q 956 3463 1253 3523 
Q 1550 3584 1831 3584 
Q 2591 3584 2966 3190 
Q 3341 2797 3341 1997 
z
" transform="scale(0.015625)"/>
       <path id="DejaVuSans-6d" d="M 3328 2828 
Q 3544 3216 3844 3400 
Q 4144 3584 4550 3584 
Q 5097 3584 5394 3201 
Q 5691 2819 5691 2113 
L 5691 0 
L 5113 0 
L 5113 2094 
Q 5113 2597 4934 2840 
Q 4756 3084 4391 3084 
Q 3944 3084 3684 2787 
Q 3425 2491 3425 1978 
L 3425 0 
L 2847 0 
L 2847 2094 
Q 2847 2600 2669 2842 
Q 2491 3084 2119 3084 
Q 1678 3084 1418 2786 
Q 1159 2488 1159 1978 
L 1159 0 
L 581 0 
L 581 3500 
L 1159 3500 
L 1159 2956 
Q 1356 3278 1631 3431 
Q 1906 3584 2284 3584 
Q 2666 3584 2933 3390 
Q 3200 3197 3328 2828 
z
" transform="scale(0.015625)"/>
       <path id="DejaVuSans-73" d="M 2834 3397 
L 2834 2853 
Q 2591 2978 2328 3040 
Q 2066 3103 1784 3103 
Q 1356 3103 1142 2972 
Q 928 2841 928 2578 
Q 928 2378 1081 2264 
Q 1234 2150 1697 2047 
L 1894 2003 
Q 2506 1872 2764 1633 
Q 3022 1394 3022 966 
Q 3022 478 2636 193 
Q 2250 -91 1575 -91 
Q 1294 -91 989 -36 
Q 684 19 347 128 
L 347 722 
Q 666 556 975 473 
Q 1284 391 1588 391 
Q 1994 391 2212 530 
Q 2431 669 2431 922 
Q 2431 1156 2273 1281 
Q 2116 1406 1581 1522 
L 1381 1569 
Q 847 1681 609 1914 
Q 372 2147 372 2553 
Q 372 3047 722 3315 
Q 1072 3584 1716 3584 
Q 2034 3584 2315 3537 
Q 2597 3491 2834 3397 
z
" transform="scale(0.015625)"/>
      </defs>
      <use xlink:href="#DejaVuSans-5a"/>
      <use xlink:href="#DejaVuSans-65" x="68.505859"/>
      <use xlink:href="#DejaVuSans-69" x="130.029297"/>
      <use xlink:href="#DejaVuSans-74" x="157.8125"/>
      <use xlink:href="#DejaVuSans-20" x="197.021484"/>
      <use xlink:href="#DejaVuSans-69" x="228.808594"/>
      <use xlink:href="#DejaVuSans-6e" x="256.591797"/>
      <use xlink:href="#DejaVuSans-20" x="319.970703"/>
      <use xlink:href="#DejaVuSans-66" x="351.757812"/>
      <use xlink:href="#DejaVuSans-72" x="386.962891"/>
      <use xlink:href="#DejaVuSans-61" x="428.076172"/>
      <use xlink:href="#DejaVuSans-6d" x="489.355469"/>
      <use xlink:href="#DejaVuSans-65" x="586.767578"/>
      <use xlink:href="#DejaVuSans-73" x="648.291016"/>
     </g>
    </g>
   </g>
   <g id="matplotlib.axis_2">
    <g id="ytick_1">
     <g id="line2d_13">
      <path d="M 90 369.36 
L 648 369.36 
" clip-path="url(#pf1b3a71883)" style="fill: none; stroke: #b0b0b0; stroke-width: 0.8; stroke-linecap: square"/>
     </g>
     <g id="line2d_14">
      <defs>
       <path id="m50e12906cd" d="M 0 0 
L -3.5 0 
" style="stroke: #000000; stroke-width: 0.8"/>
      </defs>
      <g>
       <use xlink:href="#m50e12906cd" x="90" y="369.36" style="stroke: #000000; stroke-width: 0.8"/>
      </g>
     </g>
     <g id="text_8">
      <!-- 0 -->
      <g transform="translate(76.6375 373.159219) scale(0.1 -0.1)">
       <use xlink:href="#DejaVuSans-30"/>
      </g>
     </g>
    </g>
    <g id="ytick_2">
     <g id="line2d_15">
      <path d="M 90 325.412899 
L 648 325.412899 
" clip-path="url(#pf1b3a71883)" style="fill: none; stroke: #b0b0b0; stroke-width: 0.8; stroke-linecap: square"/>
     </g>
     <g id="line2d_16">
      <g>
       <use xlink:href="#m50e12906cd" x="90" y="325.412899" style="stroke: #000000; stroke-width: 0.8"/>
      </g>
     </g>
     <g id="text_9">
      <!-- 1000 -->
      <g transform="translate(57.55 329.212118) scale(0.1 -0.1)">
       <use xlink:href="#DejaVuSans-31"/>
       <use xlink:href="#DejaVuSans-30" x="63.623047"/>
       <use xlink:href="#DejaVuSans-30" x="127.246094"/>
       <use xlink:href="#DejaVuSans-30" x="190.869141"/>
      </g>
     </g>
    </g>
    <g id="ytick_3">
     <g id="line2d_17">
      <path d="M 90 281.465799 
L 648 281.465799 
" clip-path="url(#pf1b3a71883)" style="fill: none; stroke: #b0b0b0; stroke-width: 0.8; stroke-linecap: square"/>
     </g>
     <g id="line2d_18">
      <g>
       <use xlink:href="#m50e12906cd" x="90" y="281.465799" style="stroke: #000000; stroke-width: 0.8"/>
      </g>
     </g>
     <g id="text_10">
      <!-- 2000 -->
      <g transform="translate(57.55 285.265017) scale(0.1 -0.1)">
       <use xlink:href="#DejaVuSans-32"/>
       <use xlink:href="#DejaVuSans-30" x="63.623047"/>
       <use xlink:href="#DejaVuSans-30" x="127.246094"/>
       <use xlink:href="#DejaVuSans-30" x="190.869141"/>
      </g>
     </g>
    </g>
    <g id="ytick_4">
     <g id="line2d_19">
      <path d="M 90 237.518698 
L 648 237.518698 
" clip-path="url(#pf1b3a71883)" style="fill: none; stroke: #b0b0b0; stroke-width: 0.8; stroke-linecap: square"/>
     </g>
     <g id="line2d_20">
      <g>
       <use xlink:href="#m50e12906cd" x="90" y="237.518698" style="stroke: #000000; stroke-width: 0.8"/>
      </g>
     </g>
     <g id="text_11">
      <!-- 3000 -->
      <g transform="translate(57.55 241.317917) scale(0.1 -0.1)">
       <use xlink:href="#DejaVuSans-33"/>
       <use xlink:href="#DejaVuSans-30" x="63.623047"/>
       <use xlink:href="#DejaVuSans-30" x="127.246094"/>
       <use xlink:href="#DejaVuSans-30" x="190.869141"/>
      </g>
     </g>
    </g>
    <g id="ytick_5">
     <g id="line2d_21">
      <path d="M 90 193.571597 
L 648 193.571597 
" clip-path="url(#pf1b3a71883)" style="fill: none; stroke: #b0b0b0; stroke-width: 0.8; stroke-linecap: square"/>
     </g>
     <g id="line2d_22">
      <g>
       <use xlink:href="#m50e12906cd" x="90" y="193.571597" style="stroke: #000000; stroke-width: 0.8"/>
      </g>
     </g>
     <g id="text_12">
      <!-- 4000 -->
      <g transform="translate(57.55 197.370816) scale(0.1 -0.1)">
       <use xlink:href="#DejaVuSans-34"/>
       <use xlink:href="#DejaVuSans-30" x="63.623047"/>
       <use xlink:href="#DejaVuSans-30" x="127.246094"/>
       <use xlink:href="#DejaVuSans-30" x="190.869141"/>
      </g>
     </g>
    </g>
    <g id="ytick_6">
     <g id="line2d_23">
      <path d="M 90 149.624496 
L 648 149.624496 
" clip-path="url(#pf1b3a71883)" style="fill: none; stroke: #b0b0b0; stroke-width: 0.8; stroke-linecap: square"/>
     </g>
     <g id="line2d_24">
      <g>
       <use xlink:href="#m50e12906cd" x="90" y="149.624496" style="stroke: #000000; stroke-width: 0.8"/>
      </g>
     </g>
     <g id="text_13">
      <!-- 5000 -->
      <g transform="translate(57.55 153.423715) scale(0.1 -0.1)">
       <use xlink:href="#DejaVuSans-35"/>
       <use xlink:href="#DejaVuSans-30" x="63.623047"/>
       <use xlink:href="#DejaVuSans-30" x="127.246094"/>
       <use xlink:href="#DejaVuSans-30" x="190.869141"/>
      </g>
     </g>
    </g>
    <g id="ytick_7">
     <g id="line2d_25">
      <path d="M 90 105.677396 
L 648 105.677396 
" clip-path="url(#pf1b3a71883)" style="fill: none; stroke: #b0b0b0; stroke-width: 0.8; stroke-linecap: square"/>
     </g>
     <g id="line2d_26">
      <g>
       <use xlink:href="#m50e12906cd" x="90" y="105.677396" style="stroke: #000000; stroke-width: 0.8"/>
      </g>
     </g>
     <g id="text_14">
      <!-- 6000 -->
      <g transform="translate(57.55 109.476614) scale(0.1 -0.1)">
       <defs>
        <path id="DejaVuSans-36" d="M 2113 2584 
Q 1688 2584 1439 2293 
Q 1191 2003 1191 1497 
Q 1191 994 1439 701 
Q 1688 409 2113 409 
Q 2538 409 2786 701 
Q 3034 994 3034 1497 
Q 3034 2003 2786 2293 
Q 2538 2584 2113 2584 
z
M 3366 4563 
L 3366 3988 
Q 3128 4100 2886 4159 
Q 2644 4219 2406 4219 
Q 1781 4219 1451 3797 
Q 1122 3375 1075 2522 
Q 1259 2794 1537 2939 
Q 1816 3084 2150 3084 
Q 2853 3084 3261 2657 
Q 3669 2231 3669 1497 
Q 3669 778 3244 343 
Q 2819 -91 2113 -91 
Q 1303 -91 875 529 
Q 447 1150 447 2328 
Q 447 3434 972 4092 
Q 1497 4750 2381 4750 
Q 2619 4750 2861 4703 
Q 3103 4656 3366 4563 
z
" transform="scale(0.015625)"/>
       </defs>
       <use xlink:href="#DejaVuSans-36"/>
       <use xlink:href="#DejaVuSans-30" x="63.623047"/>
       <use xlink:href="#DejaVuSans-30" x="127.246094"/>
       <use xlink:href="#DejaVuSans-30" x="190.869141"/>
      </g>
     </g>
    </g>
    <g id="ytick_8">
     <g id="line2d_27">
      <path d="M 90 61.730295 
L 648 61.730295 
" clip-path="url(#pf1b3a71883)" style="fill: none; stroke: #b0b0b0; stroke-width: 0.8; stroke-linecap: square"/>
     </g>
     <g id="line2d_28">
      <g>
       <use xlink:href="#m50e12906cd" x="90" y="61.730295" style="stroke: #000000; stroke-width: 0.8"/>
      </g>
     </g>
     <g id="text_15">
      <!-- 7000 -->
      <g transform="translate(57.55 65.529514) scale(0.1 -0.1)">
       <defs>
        <path id="DejaVuSans-37" d="M 525 4666 
L 3525 4666 
L 3525 4397 
L 1831 0 
L 1172 0 
L 2766 4134 
L 525 4134 
L 525 4666 
z
" transform="scale(0.015625)"/>
       </defs>
       <use xlink:href="#DejaVuSans-37"/>
       <use xlink:href="#DejaVuSans-30" x="63.623047"/>
       <use xlink:href="#DejaVuSans-30" x="127.246094"/>
       <use xlink:href="#DejaVuSans-30" x="190.869141"/>
      </g>
     </g>
    </g>
    <g id="text_16">
     <!-- Kumulative Summe -->
     <g transform="translate(51.470312 266.984219) rotate(-90) scale(0.1 -0.1)">
      <defs>
       <path id="DejaVuSans-4b" d="M 628 4666 
L 1259 4666 
L 1259 2694 
L 3353 4666 
L 4166 4666 
L 1850 2491 
L 4331 0 
L 3500 0 
L 1259 2247 
L 1259 0 
L 628 0 
L 628 4666 
z
" transform="scale(0.015625)"/>
       <path id="DejaVuSans-75" d="M 544 1381 
L 544 3500 
L 1119 3500 
L 1119 1403 
Q 1119 906 1312 657 
Q 1506 409 1894 409 
Q 2359 409 2629 706 
Q 2900 1003 2900 1516 
L 2900 3500 
L 3475 3500 
L 3475 0 
L 2900 0 
L 2900 538 
Q 2691 219 2414 64 
Q 2138 -91 1772 -91 
Q 1169 -91 856 284 
Q 544 659 544 1381 
z
M 1991 3584 
L 1991 3584 
z
" transform="scale(0.015625)"/>
       <path id="DejaVuSans-6c" d="M 603 4863 
L 1178 4863 
L 1178 0 
L 603 0 
L 603 4863 
z
" transform="scale(0.015625)"/>
       <path id="DejaVuSans-76" d="M 191 3500 
L 800 3500 
L 1894 563 
L 2988 3500 
L 3597 3500 
L 2284 0 
L 1503 0 
L 191 3500 
z
" transform="scale(0.015625)"/>
       <path id="DejaVuSans-53" d="M 3425 4513 
L 3425 3897 
Q 3066 4069 2747 4153 
Q 2428 4238 2131 4238 
Q 1616 4238 1336 4038 
Q 1056 3838 1056 3469 
Q 1056 3159 1242 3001 
Q 1428 2844 1947 2747 
L 2328 2669 
Q 3034 2534 3370 2195 
Q 3706 1856 3706 1288 
Q 3706 609 3251 259 
Q 2797 -91 1919 -91 
Q 1588 -91 1214 -16 
Q 841 59 441 206 
L 441 856 
Q 825 641 1194 531 
Q 1563 422 1919 422 
Q 2459 422 2753 634 
Q 3047 847 3047 1241 
Q 3047 1584 2836 1778 
Q 2625 1972 2144 2069 
L 1759 2144 
Q 1053 2284 737 2584 
Q 422 2884 422 3419 
Q 422 4038 858 4394 
Q 1294 4750 2059 4750 
Q 2388 4750 2728 4690 
Q 3069 4631 3425 4513 
z
" transform="scale(0.015625)"/>
      </defs>
      <use xlink:href="#DejaVuSans-4b"/>
      <use xlink:href="#DejaVuSans-75" x="60.576172"/>
      <use xlink:href="#DejaVuSans-6d" x="123.955078"/>
      <use xlink:href="#DejaVuSans-75" x="221.367188"/>
      <use xlink:href="#DejaVuSans-6c" x="284.746094"/>
      <use xlink:href="#DejaVuSans-61" x="312.529297"/>
      <use xlink:href="#DejaVuSans-74" x="373.808594"/>
      <use xlink:href="#DejaVuSans-69" x="413.017578"/>
      <use xlink:href="#DejaVuSans-76" x="440.800781"/>
      <use xlink:href="#DejaVuSans-65" x="499.980469"/>
      <use xlink:href="#DejaVuSans-20" x="561.503906"/>
      <use xlink:href="#DejaVuSans-53" x="593.291016"/>
      <use xlink:href="#DejaVuSans-75" x="656.767578"/>
      <use xlink:href="#DejaVuSans-6d" x="720.146484"/>
      <use xlink:href="#DejaVuSans-6d" x="817.558594"/>
      <use xlink:href="#DejaVuSans-65" x="914.970703"/>
     </g>
    </g>
   </g>
   <g id="line2d_29">
    <path d="M 115.363636 369.36 
L 118.041288 369.272106 
L 118.189398 367.426328 
L 126.320196 367.338433 
L 126.528448 362.548199 
L 126.856983 362.460305 
L 126.970983 362.284517 
L 131.811043 362.196623 
L 132.086617 354.110356 
L 133.483341 354.022462 
L 133.721214 347.781974 
L 136.734583 347.694079 
L 136.858456 347.034873 
L 137.649275 346.946979 
L 137.769558 346.463561 
L 137.785716 346.375666 
L 137.984093 342.06885 
L 145.354592 341.980956 
L 145.48834 340.838332 
L 147.828481 340.750437 
L 147.972102 339.124395 
L 151.254762 339.036501 
L 151.403769 337.146775 
L 157.144159 337.058881 
L 157.339844 332.883906 
L 157.426915 332.796012 
L 157.53912 332.708118 
L 157.769812 332.620224 
L 158.060647 323.786857 
L 169.090813 323.698962 
L 169.212891 323.12765 
L 171.764874 323.039756 
L 171.893236 322.160814 
L 182.692709 322.07292 
L 182.845307 320.007406 
L 190.50305 319.919512 
L 190.642184 318.513204 
L 193.550528 318.42531 
L 193.668119 318.073733 
L 195.516354 317.985839 
L 195.634842 317.590315 
L 206.755669 317.502421 
L 206.901984 315.744537 
L 207.275401 315.656643 
L 207.403763 314.777701 
L 222.305438 314.689807 
L 222.426619 314.162442 
L 222.773107 314.074547 
L 222.886209 313.942706 
L 223.981327 313.854812 
L 224.128539 312.052981 
L 225.101578 311.965086 
L 225.249688 310.119308 
L 226.803498 310.031414 
L 226.946222 308.449318 
L 229.127481 308.361424 
L 229.260331 307.262747 
L 240.684559 307.174852 
L 240.813819 306.251963 
L 240.820103 306.164069 
L 240.932307 306.076175 
L 241.50859 305.988281 
L 241.768007 298.693062 
L 241.978952 298.605168 
L 242.098338 298.165697 
L 242.206952 298.077803 
L 242.352369 296.363866 
L 244.630572 296.275972 
L 244.772399 294.737823 
L 251.425686 294.649929 
L 251.538788 294.518087 
L 258.498169 294.430193 
L 258.610374 294.342299 
L 262.066277 294.254405 
L 262.191049 293.551251 
L 263.415426 293.463357 
L 263.580591 290.782584 
L 275.798331 290.69469 
L 275.917717 290.255219 
L 279.36195 290.167325 
L 279.515446 288.057864 
L 282.627555 287.969969 
L 282.755019 287.134975 
L 287.874244 287.04708 
L 288.115708 280.630804 
L 289.374196 280.542909 
L 289.540259 277.818189 
L 291.64432 277.730295 
L 291.765501 277.20293 
L 296.51849 277.115036 
L 296.644159 276.367935 
L 298.738347 276.280041 
L 298.850551 276.192146 
L 301.372912 276.104252 
L 301.486912 275.928464 
L 303.765115 275.84057 
L 303.880013 275.620834 
L 306.773995 275.53294 
L 306.891585 275.181363 
L 307.815254 275.093469 
L 307.928356 274.961628 
L 318.036649 274.873733 
L 318.173987 273.55532 
L 322.303118 273.467426 
L 322.414425 273.423479 
L 346.770913 273.335585 
L 346.883117 273.247691 
L 356.437568 273.159797 
L 356.561441 272.50059 
L 361.993942 272.412696 
L 362.126792 271.314018 
L 370.122944 271.226124 
L 370.240535 270.874547 
L 371.244093 270.786653 
L 371.455038 265.864578 
L 377.50601 265.776684 
L 377.631679 265.029583 
L 380.442181 264.941689 
L 380.575929 263.799064 
L 393.459716 263.71117 
L 393.606928 261.909339 
L 408.71865 261.821445 
L 408.874839 259.580142 
L 412.292144 259.492248 
L 412.5749 251.054405 
L 414.249891 250.966511 
L 414.361198 250.922564 
L 440.146723 250.834669 
L 440.276881 249.867833 
L 460.209812 249.779939 
L 460.379466 246.87943 
L 477.908525 246.791536 
L 478.03958 245.780753 
L 486.679338 245.692859 
L 487.050959 232.904252 
L 487.182912 232.816358 
L 487.518628 221.785636 
L 527.119688 221.697742 
L 527.246255 220.906694 
L 532.06926 220.8188 
L 532.265842 216.599878 
L 622.636364 216.599878 
L 622.636364 216.599878 
" clip-path="url(#pf1b3a71883)" style="fill: none; stroke: #1f77b4; stroke-width: 2; stroke-linecap: square"/>
   </g>
   <g id="line2d_30">
    <path d="M 115.363636 369.36 
L 135.08293 369.272106 
L 135.213985 368.261322 
L 138.267747 368.173428 
L 138.440093 365.141078 
L 143.776546 365.053184 
L 143.928247 363.031617 
L 146.373411 362.943723 
L 146.562812 359.076378 
L 147.632796 358.988484 
L 147.762055 358.065595 
L 148.073535 357.977701 
L 148.212669 356.571394 
L 148.902952 356.483499 
L 149.026826 355.824293 
L 154.591279 355.736399 
L 154.781578 351.825107 
L 154.846208 351.737213 
L 154.986239 350.286958 
L 159.634205 350.199064 
L 159.776929 348.616968 
L 162.356738 348.529074 
L 162.542549 344.837518 
L 166.098988 344.749624 
L 166.217476 344.3541 
L 171.091646 344.266205 
L 171.327724 338.113611 
L 181.102993 338.025717 
L 181.249308 336.267833 
L 187.219493 336.179939 
L 187.360422 334.685738 
L 191.652923 334.597843 
L 191.7759 333.982584 
L 192.353978 333.89469 
L 192.467978 333.718901 
L 193.312654 333.631007 
L 193.695048 320.315036 
L 193.960748 320.227141 
L 194.092701 319.172411 
L 194.827866 319.084517 
L 194.95174 318.42531 
L 196.031597 318.337416 
L 196.203944 315.305066 
L 196.360133 315.217172 
L 196.501959 313.679023 
L 197.088116 313.591129 
L 197.220967 312.492452 
L 202.149893 312.404557 
L 202.263892 312.228769 
L 205.744929 312.140875 
L 205.87778 311.042197 
L 206.997133 310.954303 
L 207.135369 309.591943 
L 208.577872 309.504049 
L 208.699951 308.932737 
L 213.943948 308.844842 
L 214.086672 307.262747 
L 214.997774 307.174852 
L 215.145884 305.329074 
L 216.075836 305.24118 
L 216.24908 302.164883 
L 216.475284 302.076989 
L 216.638654 299.48411 
L 218.526385 299.396216 
L 218.712196 295.704659 
L 221.280336 295.616765 
L 221.473328 291.573632 
L 222.178871 291.485738 
L 222.515485 280.411068 
L 223.300918 280.323174 
L 223.440949 278.87292 
L 224.099815 278.785025 
L 224.26498 276.104252 
L 224.575562 276.016358 
L 224.728161 273.950844 
L 228.270237 273.86295 
L 228.399497 272.940061 
L 229.179544 272.852167 
L 229.300725 272.324802 
L 229.341118 272.236907 
L 229.457811 271.929278 
L 231.638172 271.841384 
L 231.780896 270.259288 
L 232.327557 270.171394 
L 232.445148 269.819817 
L 232.57351 269.731923 
L 232.716234 268.149827 
L 235.319382 268.061933 
L 235.463901 266.391943 
L 235.856169 266.304049 
L 236.006074 264.370376 
L 236.448609 264.282482 
L 236.573381 263.579329 
L 236.652373 263.491434 
L 236.792405 262.04118 
L 236.910893 261.953286 
L 237.107475 257.734364 
L 237.579632 257.64647 
L 237.700813 257.119105 
L 237.784294 257.031211 
L 237.925223 255.537009 
L 239.29771 255.449115 
L 239.429663 254.394385 
L 240.196245 254.30649 
L 240.311142 254.086755 
L 240.633394 253.998861 
L 240.757268 253.339654 
L 242.139629 253.25176 
L 242.266196 252.460712 
L 244.615313 252.372818 
L 244.763423 250.52704 
L 244.798431 250.439145 
L 244.918714 249.955727 
L 245.222115 249.867833 
L 245.358556 248.593367 
L 245.538981 248.505473 
L 245.700556 246.000488 
L 246.270556 245.912594 
L 246.395327 245.20944 
L 249.956254 245.121546 
L 250.090002 243.978922 
L 250.531639 243.891027 
L 250.692316 241.42999 
L 251.20756 241.342096 
L 251.352977 239.628159 
L 252.97411 239.540264 
L 253.095291 239.012899 
L 253.57822 238.925005 
L 253.7757 234.662136 
L 257.09606 234.574242 
L 257.221729 233.827141 
L 262.732324 233.739247 
L 262.88582 231.629786 
L 264.725976 231.541892 
L 264.857929 230.487162 
L 265.245708 230.399268 
L 265.490763 223.807202 
L 267.71421 223.719308 
L 267.857832 222.093266 
L 269.333548 222.005371 
L 269.453831 221.521953 
L 272.413341 221.434059 
L 272.540805 220.599064 
L 272.872034 220.51117 
L 273.057845 216.819613 
L 273.446521 216.731719 
L 273.563214 216.42409 
L 273.629639 216.336195 
L 273.746332 216.028566 
L 274.541639 215.940671 
L 274.679875 214.578311 
L 275.041623 214.490417 
L 275.169985 213.611475 
L 276.327039 213.523581 
L 276.504771 210.227548 
L 278.238109 210.139654 
L 278.354802 209.832024 
L 278.795541 209.74413 
L 279.135746 198.493672 
L 279.146518 198.405778 
L 279.495698 186.715849 
L 280.028895 186.627955 
L 280.154564 185.880855 
L 284.638262 185.79296 
L 284.859081 180.387467 
L 285.019758 180.299573 
L 285.166073 178.541689 
L 286.725268 178.453795 
L 286.864402 177.047487 
L 286.93352 176.959593 
L 287.058292 176.256439 
L 289.345471 176.168545 
L 289.464857 175.729074 
L 289.478322 175.64118 
L 289.647975 172.740671 
L 290.757455 172.652777 
L 290.881329 171.993571 
L 297.443954 171.905677 
L 297.586678 170.323581 
L 298.137828 170.235687 
L 298.252725 170.015951 
L 299.693433 169.928057 
L 299.82 169.137009 
L 300.649416 169.049115 
L 300.794834 167.335178 
L 302.118848 167.247284 
L 302.239132 166.763866 
L 305.522689 166.675972 
L 305.640279 166.324395 
L 307.46338 166.236501 
L 307.598923 165.005982 
L 309.860969 164.918087 
L 310.009977 163.028362 
L 313.556541 162.940468 
L 313.684904 162.061526 
L 313.716321 161.973632 
L 313.832116 161.709949 
L 317.510633 161.622055 
L 317.656948 159.864171 
L 318.53753 159.776277 
L 318.66679 158.853388 
L 322.098457 158.765493 
L 322.319276 153.36 
L 323.272566 153.272106 
L 323.424267 151.250539 
L 333.314434 151.162645 
L 333.494859 147.734771 
L 334.760527 147.646877 
L 335.189598 132.045656 
L 336.154558 131.957762 
L 336.408589 124.926226 
L 339.653547 124.838332 
L 339.924634 116.971801 
L 345.358032 116.883906 
L 345.500756 115.301811 
L 348.045558 115.213917 
L 348.181101 113.983398 
L 359.270511 113.895504 
L 359.417723 112.093672 
L 376.635302 112.005778 
L 376.965632 101.238739 
L 378.259128 101.150844 
L 378.409931 99.173225 
L 378.646907 99.085331 
L 378.777962 98.074547 
L 378.873111 97.986653 
L 379.008655 96.756134 
L 379.080466 96.66824 
L 379.216009 95.437721 
L 382.926841 95.349827 
L 383.118935 91.350641 
L 383.159329 91.262747 
L 383.278715 90.823276 
L 414.222961 90.735381 
L 414.354914 89.680651 
L 419.963351 89.592757 
L 420.127619 86.955931 
L 421.316091 86.868037 
L 421.436374 86.384619 
L 421.439067 86.296724 
L 421.55935 85.813306 
L 449.729898 85.725412 
L 449.866339 84.450946 
L 453.234274 84.363052 
L 453.361738 83.528057 
L 462.014063 83.440163 
L 462.180126 80.715443 
L 477.623974 80.627548 
L 477.751438 79.792553 
L 478.006367 79.704659 
L 478.161658 77.507304 
L 502.255138 77.41941 
L 502.367343 77.331516 
L 509.188488 77.243622 
L 509.328519 75.793367 
L 544.454858 75.705473 
L 544.650542 71.530498 
L 544.910857 71.442604 
L 545.036526 70.695504 
L 548.811091 70.607609 
L 548.977154 67.882889 
L 549.112697 67.794995 
L 549.240161 66.96 
L 622.636364 66.96 
L 622.636364 66.96 
" clip-path="url(#pf1b3a71883)" style="fill: none; stroke: #ff0000; stroke-width: 2; stroke-linecap: square"/>
   </g>
   <g id="patch_3">
    <path d="M 90 384.48 
L 90 51.84 
" style="fill: none; stroke: #000000; stroke-width: 0.8; stroke-linejoin: miter; stroke-linecap: square"/>
   </g>
   <g id="patch_4">
    <path d="M 648 384.48 
L 648 51.84 
" style="fill: none; stroke: #000000; stroke-width: 0.8; stroke-linejoin: miter; stroke-linecap: square"/>
   </g>
   <g id="patch_5">
    <path d="M 90 384.48 
L 648 384.48 
" style="fill: none; stroke: #000000; stroke-width: 0.8; stroke-linejoin: miter; stroke-linecap: square"/>
   </g>
   <g id="patch_6">
    <path d="M 90 51.84 
L 648 51.84 
" style="fill: none; stroke: #000000; stroke-width: 0.8; stroke-linejoin: miter; stroke-linecap: square"/>
   </g>
   <g id="text_17">
    <!-- Maus an Snicket (3cm Radius) -->
    <g transform="translate(278.475 45.84) scale(0.12 -0.12)">
     <defs>
      <path id="DejaVuSans-4d" d="M 628 4666 
L 1569 4666 
L 2759 1491 
L 3956 4666 
L 4897 4666 
L 4897 0 
L 4281 0 
L 4281 4097 
L 3078 897 
L 2444 897 
L 1241 4097 
L 1241 0 
L 628 0 
L 628 4666 
z
" transform="scale(0.015625)"/>
      <path id="DejaVuSans-63" d="M 3122 3366 
L 3122 2828 
Q 2878 2963 2633 3030 
Q 2388 3097 2138 3097 
Q 1578 3097 1268 2742 
Q 959 2388 959 1747 
Q 959 1106 1268 751 
Q 1578 397 2138 397 
Q 2388 397 2633 464 
Q 2878 531 3122 666 
L 3122 134 
Q 2881 22 2623 -34 
Q 2366 -91 2075 -91 
Q 1284 -91 818 406 
Q 353 903 353 1747 
Q 353 2603 823 3093 
Q 1294 3584 2113 3584 
Q 2378 3584 2631 3529 
Q 2884 3475 3122 3366 
z
" transform="scale(0.015625)"/>
      <path id="DejaVuSans-6b" d="M 581 4863 
L 1159 4863 
L 1159 1991 
L 2875 3500 
L 3609 3500 
L 1753 1863 
L 3688 0 
L 2938 0 
L 1159 1709 
L 1159 0 
L 581 0 
L 581 4863 
z
" transform="scale(0.015625)"/>
      <path id="DejaVuSans-28" d="M 1984 4856 
Q 1566 4138 1362 3434 
Q 1159 2731 1159 2009 
Q 1159 1288 1364 580 
Q 1569 -128 1984 -844 
L 1484 -844 
Q 1016 -109 783 600 
Q 550 1309 550 2009 
Q 550 2706 781 3412 
Q 1013 4119 1484 4856 
L 1984 4856 
z
" transform="scale(0.015625)"/>
      <path id="DejaVuSans-52" d="M 2841 2188 
Q 3044 2119 3236 1894 
Q 3428 1669 3622 1275 
L 4263 0 
L 3584 0 
L 2988 1197 
Q 2756 1666 2539 1819 
Q 2322 1972 1947 1972 
L 1259 1972 
L 1259 0 
L 628 0 
L 628 4666 
L 2053 4666 
Q 2853 4666 3247 4331 
Q 3641 3997 3641 3322 
Q 3641 2881 3436 2590 
Q 3231 2300 2841 2188 
z
M 1259 4147 
L 1259 2491 
L 2053 2491 
Q 2509 2491 2742 2702 
Q 2975 2913 2975 3322 
Q 2975 3731 2742 3939 
Q 2509 4147 2053 4147 
L 1259 4147 
z
" transform="scale(0.015625)"/>
      <path id="DejaVuSans-64" d="M 2906 2969 
L 2906 4863 
L 3481 4863 
L 3481 0 
L 2906 0 
L 2906 525 
Q 2725 213 2448 61 
Q 2172 -91 1784 -91 
Q 1150 -91 751 415 
Q 353 922 353 1747 
Q 353 2572 751 3078 
Q 1150 3584 1784 3584 
Q 2172 3584 2448 3432 
Q 2725 3281 2906 2969 
z
M 947 1747 
Q 947 1113 1208 752 
Q 1469 391 1925 391 
Q 2381 391 2643 752 
Q 2906 1113 2906 1747 
Q 2906 2381 2643 2742 
Q 2381 3103 1925 3103 
Q 1469 3103 1208 2742 
Q 947 2381 947 1747 
z
" transform="scale(0.015625)"/>
      <path id="DejaVuSans-29" d="M 513 4856 
L 1013 4856 
Q 1481 4119 1714 3412 
Q 1947 2706 1947 2009 
Q 1947 1309 1714 600 
Q 1481 -109 1013 -844 
L 513 -844 
Q 928 -128 1133 580 
Q 1338 1288 1338 2009 
Q 1338 2731 1133 3434 
Q 928 4138 513 4856 
z
" transform="scale(0.015625)"/>
     </defs>
     <use xlink:href="#DejaVuSans-4d"/>
     <use xlink:href="#DejaVuSans-61" x="86.279297"/>
     <use xlink:href="#DejaVuSans-75" x="147.558594"/>
     <use xlink:href="#DejaVuSans-73" x="210.9375"/>
     <use xlink:href="#DejaVuSans-20" x="263.037109"/>
     <use xlink:href="#DejaVuSans-61" x="294.824219"/>
     <use xlink:href="#DejaVuSans-6e" x="356.103516"/>
     <use xlink:href="#DejaVuSans-20" x="419.482422"/>
     <use xlink:href="#DejaVuSans-53" x="451.269531"/>
     <use xlink:href="#DejaVuSans-6e" x="514.746094"/>
     <use xlink:href="#DejaVuSans-69" x="578.125"/>
     <use xlink:href="#DejaVuSans-63" x="605.908203"/>
     <use xlink:href="#DejaVuSans-6b" x="660.888672"/>
     <use xlink:href="#DejaVuSans-65" x="715.173828"/>
     <use xlink:href="#DejaVuSans-74" x="776.697266"/>
     <use xlink:href="#DejaVuSans-20" x="815.90625"/>
     <use xlink:href="#DejaVuSans-28" x="847.693359"/>
     <use xlink:href="#DejaVuSans-33" x="886.707031"/>
     <use xlink:href="#DejaVuSans-63" x="950.330078"/>
     <use xlink:href="#DejaVuSans-6d" x="1005.310547"/>
     <use xlink:href="#DejaVuSans-20" x="1102.722656"/>
     <use xlink:href="#DejaVuSans-52" x="1134.509766"/>
     <use xlink:href="#DejaVuSans-61" x="1201.742188"/>
     <use xlink:href="#DejaVuSans-64" x="1263.021484"/>
     <use xlink:href="#DejaVuSans-69" x="1326.498047"/>
     <use xlink:href="#DejaVuSans-75" x="1354.28125"/>
     <use xlink:href="#DejaVuSans-73" x="1417.660156"/>
     <use xlink:href="#DejaVuSans-29" x="1469.759766"/>
    </g>
   </g>
   <g id="legend_1">
    <g id="patch_7">
     <path d="M 97 89.19625 
L 165.573438 89.19625 
Q 167.573438 89.19625 167.573438 87.19625 
L 167.573438 58.84 
Q 167.573438 56.84 165.573438 56.84 
L 97 56.84 
Q 95 56.84 95 58.84 
L 95 87.19625 
Q 95 89.19625 97 89.19625 
z
" style="fill: #ffffff; opacity: 0.8; stroke: #cccccc; stroke-linejoin: miter"/>
    </g>
    <g id="line2d_31">
     <path d="M 99 64.938437 
L 109 64.938437 
L 119 64.938437 
" style="fill: none; stroke: #1f77b4; stroke-width: 2; stroke-linecap: square"/>
    </g>
    <g id="text_18">
     <!-- Modul1 -->
     <g transform="translate(127 68.438437) scale(0.1 -0.1)">
      <defs>
       <path id="DejaVuSans-6f" d="M 1959 3097 
Q 1497 3097 1228 2736 
Q 959 2375 959 1747 
Q 959 1119 1226 758 
Q 1494 397 1959 397 
Q 2419 397 2687 759 
Q 2956 1122 2956 1747 
Q 2956 2369 2687 2733 
Q 2419 3097 1959 3097 
z
M 1959 3584 
Q 2709 3584 3137 3096 
Q 3566 2609 3566 1747 
Q 3566 888 3137 398 
Q 2709 -91 1959 -91 
Q 1206 -91 779 398 
Q 353 888 353 1747 
Q 353 2609 779 3096 
Q 1206 3584 1959 3584 
z
" transform="scale(0.015625)"/>
      </defs>
      <use xlink:href="#DejaVuSans-4d"/>
      <use xlink:href="#DejaVuSans-6f" x="86.279297"/>
      <use xlink:href="#DejaVuSans-64" x="147.460938"/>
      <use xlink:href="#DejaVuSans-75" x="210.9375"/>
      <use xlink:href="#DejaVuSans-6c" x="274.316406"/>
      <use xlink:href="#DejaVuSans-31" x="302.099609"/>
     </g>
    </g>
    <g id="line2d_32">
     <path d="M 99 79.616562 
L 109 79.616562 
L 119 79.616562 
" style="fill: none; stroke: #ff0000; stroke-width: 2; stroke-linecap: square"/>
    </g>
    <g id="text_19">
     <!-- Modul2 -->
     <g transform="translate(127 83.116562) scale(0.1 -0.1)">
      <use xlink:href="#DejaVuSans-4d"/>
      <use xlink:href="#DejaVuSans-6f" x="86.279297"/>
      <use xlink:href="#DejaVuSans-64" x="147.460938"/>
      <use xlink:href="#DejaVuSans-75" x="210.9375"/>
      <use xlink:href="#DejaVuSans-6c" x="274.316406"/>
      <use xlink:href="#DejaVuSans-32" x="302.099609"/>
     </g>
    </g>
   </g>
  </g>
 </g>
 <defs>
  <clipPath id="pf1b3a71883">
   <rect x="90" y="51.84" width="558" height="332.64"/>
  </clipPath>
 </defs>
</svg>
